<?xml version="1.0" encoding="UTF-8"?>
<svg id="Layer_2" data-name="Layer 2" xmlns="http://www.w3.org/2000/svg" viewBox="0 0 413.68 430.07">
  <defs>
    <style>
      .cls-1 {
        fill: none;
        stroke: #4d4d4d;
        stroke-miterlimit: 10;
        stroke-width: 5px;
      }

      .cls-2 {
        fill: #603813;
      }

      .cls-2, .cls-3, .cls-4, .cls-5, .cls-6, .cls-7, .cls-8, .cls-9, .cls-10, .cls-11, .cls-12, .cls-13, .cls-14, .cls-15, .cls-16, .cls-17 {
        stroke-width: 0px;
      }

      .cls-3 {
        fill: #7b400b;
      }

      .cls-4 {
        fill: #4d4d4d;
      }

      .cls-5 {
        fill: #88a80d;
      }

      .cls-6 {
        fill: #97622e;
      }

      .cls-7 {
        fill: #445407;
      }

      .cls-8 {
        fill: #c8802b;
      }

      .cls-9 {
        fill: #d5904a;
      }

      .cls-10 {
        fill: #b56c1d;
      }

      .cls-11 {
        fill: #8c5f32;
      }

      .cls-12 {
        fill: #b3b3b3;
      }

      .cls-13 {
        fill: #667e0a;
      }

      .cls-14 {
        fill: #97530f;
      }

      .cls-15 {
        fill: #fff2cb;
      }

      .cls-16 {
        fill: #e9b36d;
      }

      .cls-17 {
        fill: #683409;
      }
    </style>
  </defs>
  <g id="Layer_1-2" data-name="Layer 1">
    <g>
      <rect class="cls-15" width="191.72" height="191.72" rx="12" ry="12"/>
      <g>
        <rect class="cls-6" x="83.1" y="133.83" width="28.94" height="41.96" rx="1.49" ry="1.49"/>
        <path class="cls-7" d="m102.9,47.98l54.14,71.31c3.35,4.42.2,10.76-5.34,10.76H43.5c-5.54,0-8.69-6.34-5.34-10.76l54.06-71.31c2.68-3.54,8-3.54,10.68,0Z"/>
        <path class="cls-13" d="m103.05,31.07l45.07,60.2c3.4,4.54.16,11.01-5.51,11.01H52.54c-5.67,0-8.91-6.47-5.51-11.01l45-60.2c2.75-3.68,8.27-3.68,11.03,0Z"/>
        <path class="cls-5" d="m102.75,16.52l29.14,38.92c3.21,4.29.15,10.4-5.2,10.4h-58.23c-5.35,0-8.41-6.11-5.21-10.39l29.09-38.92c2.6-3.48,7.81-3.48,10.41,0Z"/>
      </g>
      <rect class="cls-15" x="221.96" y="217.26" width="191.72" height="211.92" rx="12" ry="12"/>
      <rect class="cls-15" x="2.45" y="217.26" width="191.72" height="212.81" rx="12" ry="12"/>
      <rect class="cls-15" x="220.75" width="191.72" height="191.72" rx="12" ry="12"/>
      <g id="Layer_1-2" data-name="Layer 1-2">
        <g>
          <polygon class="cls-16" points="365.31 63.94 359.56 62.36 341.95 37.44 341.95 27.04 364.67 26.78 365.31 63.94"/>
          <path class="cls-16" d="m307.9,26.9c10.19,19.72,20.85,39.19,31.24,58.8,7.9,14.91,15.27,30.09,23.87,44.62-.09.53.27.55.29.58.04.08-.11.38.22.58.22-.2-.21-.55-.22-.58-.11-.24-.14-.34-.29-.58-17.02-34.95-36.2-68.78-54.1-103.28,3.59.02,7.09-.28,10.7,0,3.64,8.99,9.02,17.14,13.6,25.67,11.26,20.97,21.92,42.28,33.27,63.21.37,1.36.75,2.79.87,4.19.34,4.08.16,17.66.14,23.07-8.05-11.55-15.39-23.73-22.71-35.8-16.12-26.57-31.53-53.58-47.3-80.35,3.46,0,6.94-.15,10.41-.14Z"/>
          <path class="cls-9" d="m292.42,158.96c-4.09,0-8.2.14-12.29.14-5.86-13.75-11.12-27.77-17.29-41.37.74,2.75,1.79,5.61,2.82,8.32,4.23,11.11,9.16,21.96,13.45,33.05h-17.07c0-24.73,0-49.47,0-74.2,11.9,23.89,22.19,48.64,30.38,74.06Z"/>
          <path class="cls-9" d="m319.76,151.15c1.81,2.63,3.63,5.27,5.35,7.96h-7.52c-6.85-9.56-13.1-19.52-19.53-29.36-.15-.32-.19-.76-.51-1.01-.17.45.46.95.51,1.01,2.16,4.7,4.79,9.18,7.09,13.81,2.53,5.09,4.79,10.33,7.38,15.4-2.69,0-5.4.14-8.1.14-8.75-22.02-20.97-42.36-31.97-63.28-3.47-5.91-6.94-11.81-10.41-17.72,0-3.56-.14-7.15-.14-10.7,12.75,20.6,27.47,39.86,41.37,59.67,5.58,7.96,10.99,16.06,16.49,24.08Z"/>
          <path class="cls-11" d="m262.04,159.1h18.08c4.1,0,8.2-.14,12.29-.14s8,.14,12.01.14c2.7,0,5.41-.14,8.1-.14,1.67,0,3.38.14,5.06.14h8.1c3.91,0,7.81,0,11.72,0h3.62c2.22,0,4.45-.14,6.65-.14,2.88,0,5.79.16,8.68.14.53,0,1.06,0,1.59,0,1.09,0,9.35.22,9.55-.22.01-5.23-.01-10.46,0-15.69.02-5.4.19-18.99-.14-23.07-.12-1.4-.49-2.84-.87-4.19-11.35-20.93-22.01-42.23-33.27-63.21-4.58-8.53-9.95-16.68-13.6-25.67.74.06,1.5-.04,2.24,0l.51.51c15.38,29.27,30.76,58.53,46.14,87.8l.72,3.18v43.54c-35.7.02-71.4.05-107.11.07l-.07-3.04h0Z"/>
          <path class="cls-16" d="m304.43,159.1c-4,0-8.01-.14-12.01-.14-8.18-25.41-18.47-50.17-30.38-74.06v-6.8c3.47,5.91,6.94,11.81,10.41,17.72,11,20.92,23.22,41.27,31.97,63.28h0Z"/>
          <path class="cls-9" d="m308.91,27.04c17.9,34.5,37.08,68.32,54.1,103.27-8.6-14.54-15.97-29.71-23.87-44.62-10.39-19.61-21.05-39.08-31.24-58.8.05,0,.14.14,1.01.14Z"/>
          <path class="cls-16" d="m341.46,132.78c.14.25,1.06,2.54,1.74,3.69,4.43,7.52,9,14.96,13.16,22.64-2.89.01-5.8-.15-8.68-.14-11.21-21.12-22.4-42.24-34.28-62.99-12.52-19.82-25.27-39.47-37.17-59.67.1-.42-.26-.59-.43-.87-.03-.08-.04-.46-.36-.72-.24.3.32.66.36.72.19.43.17.42.43.87,9.28,18.74,17.55,37.94,28.06,56.05,3.66,6.3,7.75,12.37,11.43,18.66,9.14,15.65,17.35,31.82,25.31,48.09h-3.62c-13.87-30.14-31.66-58.29-47.44-87.44-5.31-9.95-9.26-20.49-13.74-30.81-1.96-4.53-4.46-8.87-5.93-13.6l4.85.07c20.54,30.05,39.26,61.34,58.08,92.5,2.64,4.38,5.63,8.54,8.24,12.95Z"/>
          <path class="cls-16" d="m357.94,159.1c-.53,0-1.06,0-1.59,0-4.16-7.67-8.73-15.12-13.16-22.64-.67-1.15-1.59-3.44-1.74-3.69,6.23,8.29,11,17.55,16.49,26.33Z"/>
          <g>
            <path class="cls-9" d="m297.48,27.04c15.78,26.77,31.18,53.79,47.3,80.35,7.32,12.07,14.66,24.25,22.71,35.8-.01,5.23.01,10.46,0,15.69-.19.44-8.46.21-9.55.22-5.49-8.77-10.26-18.04-16.49-26.33-2.61-4.4-5.6-8.57-8.24-12.95-18.82-31.16-37.53-62.45-58.08-92.5l-4.85-.07c1.47,4.73,3.97,9.07,5.93,13.6,4.48,10.32,8.44,20.86,13.74,30.81,15.79,29.15,33.57,57.29,47.44,87.44-3.91,0-7.81,0-11.72,0-1.57-2.88-3.54-5.52-5.35-8.24-18.93-28.41-39.43-55.72-58.29-84.18.01-13.19-.03-26.37,0-39.56,11.81-.27,23.63-.08,35.44-.07Z"/>
            <path class="cls-16" d="m320.34,150.86l-.58.29c-5.5-8.02-10.91-16.12-16.49-24.08-13.89-19.81-28.62-39.07-41.37-59.67,0-.4.14-.49.14-.72,18.86,28.45,39.36,55.77,58.29,84.18h0Z"/>
            <path class="cls-16" d="m318.02,136.83c-2.51-3.26-8.55-14.24-11.43-18.88-14.56-23.5-31.53-45.51-44.41-70.01l.07-14.39c6.52,13.45,12.57,27.15,19.74,40.28,7.62,13.95,16.59,27.12,24.45,40.93,2.25,3.96,10.44,18.96,11.57,22.06Z"/>
            <path class="cls-16" d="m325.69,159.1h-.58c-1.72-2.69-3.54-5.32-5.35-7.96l.58-.29c1.81,2.72,3.78,5.37,5.35,8.24Z"/>
            <path class="cls-16" d="m318.02,136.83s.47.16.22.43c-.36.05-.16-.36-.22-.43Z"/>
          </g>
          <path class="cls-9" d="m363.29,130.9s-.38-.05-.29-.58c.14.24.18.34.29.58Z"/>
          <path class="cls-9" d="m363.29,130.9s.44.38.22.58c-.32-.19-.17-.49-.22-.58Z"/>
          <path class="cls-16" d="m280.13,159.1h-1.01c-4.29-11.09-9.22-21.94-13.45-33.05-1.03-2.71-2.08-5.57-2.82-8.32,6.16,13.6,11.43,27.62,17.29,41.37Z"/>
          <path class="cls-16" d="m317.59,159.1c-1.69,0-3.39-.14-5.06-.14-2.58-5.07-4.85-10.31-7.38-15.4-2.3-4.63-4.93-9.11-7.09-13.81,6.43,9.85,12.67,19.8,19.53,29.36Z"/>
          <path class="cls-16" d="m298.06,129.74c-.04-.07-.68-.57-.51-1.01.32.25.36.69.51,1.01Z"/>
          <path class="cls-9" d="m347.67,158.96c-2.21,0-4.44.14-6.65.14-7.97-16.27-16.18-32.45-25.31-48.09-3.67-6.29-7.77-12.36-11.43-18.66-10.51-18.1-18.78-37.31-28.06-56.05,11.9,20.2,24.65,39.84,37.17,59.67,11.88,20.75,23.07,41.88,34.28,62.99h0Z"/>
          <path class="cls-9" d="m276.22,36.3c-.27-.45-.24-.44-.43-.87.17.28.53.45.43.87Z"/>
          <path class="cls-9" d="m275.79,35.43c-.04-.06-.6-.42-.36-.72.32.26.33.65.36.72Z"/>
          <path class="cls-9" d="m362.02,26.86l2.65-.07.69,23.14c-6.05-7.73-12.24-15.39-18.69-22.91-1.11-.01-2.22-.03-3.33-.04,1.01,2.59,2.72,4.96,4.07,7.44,3.08,5.65,5.79,11.42,9.44,16.86,2.87,4.23,5.94,8.42,8.93,12.6l.38,17.31c-9.54-10.85-38.06-43.15-47.25-54.2l18.77-.09c8.11-.15,16.22-.04,24.34-.04h0Z"/>
          <path class="cls-16" d="m366.2,81.84c-.12-.13-.23-.26-.35-.4-15.93-18.1-33.53-35.63-48.15-54.45h1.49c15.2,18.22,31.2,35.83,46.94,53.76l.07,1.08h0Z"/>
          <path class="cls-16" d="m366,73.73c-9.45-11.79-28.88-34.34-37.06-46.75l4.87-.07c4.48,7.37,12.65,18.36,17.58,25.55,4.53,6.61,9.75,12.89,14.57,19.37l.04,1.9h0Z"/>
          <path class="cls-11" d="m367.01,162.14c-.04-2.23-.08-4.46-.12-6.69,0-.13,0-.26,0-.4-.03-1.61-.2-3.21-.23-4.82-.03-1.57.09-3.14.06-4.71-.02-1.06-.18-2.12-.2-3.17-.01-.65.12-1.32.11-1.99-.02-.98-.03-1.96-.05-2.95,0-.01,0-.09,0-.23,0-.06,0-.12,0-.2,0-.51-.02-1.41-.04-2.31,0-.2,0-.39-.01-.59,0-.55-.02-1.08-.03-1.48,0-.32-.01-.63-.01-.94,0-.16,0-.32,0-.47-.02-.87-.17-1.74-.19-2.6-.03-1.13.12-2.27.09-3.4,0-.21,0-.42-.01-.62-.01-.43-.32-10.18-.76-10.25l3.65,5.78c.27,13.99.53,27.98.8,41.97l-3.04.08h0Z"/>
          <path class="cls-11" d="m365.36,80.89c-.04-2.22-.08-4.44-.12-6.67,0-.18,0-.36,0-.53-.04-2.16-.22-4.31-.26-6.46-.04-2.1.07-4.21.03-6.32-.03-1.42-.19-2.84-.22-4.26-.01-.88.12-1.78.1-2.66-.03-1.32-.04-2.64-.07-3.95,0-.01,0-.13,0-.31,0-.08,0-.17,0-.27-.01-.69-.03-1.89-.05-3.1,0-.26,0-.53-.01-.79-.01-.74-.03-1.44-.04-1.99,0-.42-.01-.84-.02-1.26,0-.21,0-.43-.01-.64-.02-1.17-.18-2.33-.21-3.5-.03-1.52.11-3.05.07-4.57,0-.28,0-.56-.01-.84-.02-.57.12-5.84-.32-5.93l3.18-.05c.53,28.16,0,28.85.53,57.01l-2.55-2.9h0Z"/>
        </g>
      </g>
      <g id="Layer_1-2-2" data-name="Layer 1-2">
        <path class="cls-8" d="m127,267.79v.19c.84,2.11,3.4,6.71,4.74,8.25,2.02,2.32,2.86,1.91,3.98,3.32.11.55.47,1.05.76,1.52,4.4,7.03,8.91,21.03,16.68,19.72,3.37,3.75,6.85,7.38,10.05,11.28-3.79.02-7.59.23-11.37.28-5.37.08-10.75-.21-16.11.19-.01-.02-.37-.17-.38-.19-.19-.25-.38-.51-.57-.76-8.26-11.11-15.33-30.45-19.34-43.79,3.86,0,7.71-.01,11.56,0h0Z"/>
        <path class="cls-8" d="m134.4,267.79c2.82,4.38,5.96,8.55,9.1,12.7,5.23,6.92,6.67,10,14.51,15.55-6.18-9.13-13.22-18.28-18.49-28.25,3.32.04,6.64-.03,9.95,0,.43.38.67.91,1.04,1.33-.49.54,2.41,4.46,3.41,5.78,2.65,3.52,5.72,6.31,6.82,7.68,7.54,9.33,14.53,19.19,21.42,29.01v.76c-4.3.06-8.6.13-12.89.19-6.44.09.08-.08-.19-.19-3.32-3.6-6.64-7.21-9.95-10.81-13.41-7.31-19.59-22.11-28.53-33.75,1.26,0,2.53,0,3.79,0Z"/>
        <path class="cls-8" d="m66.14,267.79c-4.05,4.94-7.6,10.37-11.94,15.07-7.61,8.24-23.31,19.54-31.76,29.48h-5.78l.19-.85c11.03-14.72,21.26-30.06,33.65-43.7,5.21-.02,10.43.03,15.64,0h0Z"/>
        <path class="cls-8" d="m88.89,267.79c-3.2,13.68-4.5,35.46-15.17,44.56h-7.58c9.66-14.67,16.05-26.39,18.68-44.18-6.35,19.56-9.85,27.68-22.09,44.37h-.19c-3.42-.02-7.01-.14-10.43-.47,3.19-4.18,7.72-8.48,10.81-12.51,2.73-3.57,4.77-7.68,7.58-11.18,5.37-6.69,8.9-6.85,11.94-20.57,2.15,0,4.3,0,6.45,0Z"/>
        <path class="cls-8" d="m112.21,267.79c.82,3.93,2.12,7.72,3.22,11.56,1.84,6.4,3.53,12.88,5.5,19.25,1.41,4.57,3.43,9.16,4.46,13.75-.98.02-1.96-.04-2.94,0-1.27.05-1.44.19-1.52.19-2.78.04-5.65-.58-8.44,0-6.2-14.03-8.02-29.55-8.82-44.75,2.84,0,5.69,0,8.53,0Z"/>
        <path class="cls-8" d="m96.1,267.79c-.28,6.56-.95,13.16-1.14,19.72-.18,6.31-.57,12.66.95,18.87.15,2.3-.13,3.82-.38,5.97-3.85,0-7.71-.03-11.56,0h-.19c.41-15.08,5.01-29.63,6.82-44.56,1.83,0,3.67,0,5.5,0h0Z"/>
        <path class="cls-8" d="m80.17,267.79c-6.21,15.62-6.64,13.17-14.22,21.52-6.93,7.63-13.56,15.55-20.67,23.04l-.38.19c-2.84-.16-5.69-.32-8.53-.47,10.82-9.94,19.89-21.57,30.9-31.28l7.58-12.99c1.77,0,3.54,0,5.31,0Z"/>
        <path class="cls-8" d="m72.02,267.79c-2.63,3.91-5.28,7.81-7.39,12.04-10.39,11.01-20.38,22.36-31.47,32.7-.29-.01-.44,0-.57,0-.51-.02-4.51-.2-4.55-.47,13.86-14.75,28.41-28.83,41.52-44.27.82,0,1.64,0,2.46,0h0Z"/>
        <path class="cls-14" d="m69.55,267.79c-13.11,15.44-27.66,29.52-41.52,44.27.04.28,4.04.46,4.55.47l-5.21,7.39c-1.67-.03-3.35-.06-5.02-.09.62-1.15,4.98-6.42,5.12-6.82.1-.29.26-.44-.09-.66-.27-.1-4.59.01-4.93.19-.7.37-5.07,7.67-5.5,7.39-.25-.16.17-.86-.47-.76-.16-1.34-.08-5.51.19-6.82h5.78c8.45-9.94,24.15-21.24,31.76-29.48,4.34-4.7,7.9-10.13,11.94-15.07,1.14,0,2.27,0,3.41,0h0Z"/>
        <path class="cls-14" d="m74.86,267.79l-7.58,12.99c-11.01,9.71-20.08,21.34-30.9,31.28,2.84.16,5.69.32,8.53.47l-6.07,7.77c-2.89.09-5.82,0-8.72,0,1.96-2.56,3.92-5.12,5.88-7.68-.09-.64-2.39-.08-2.84-.09,11.09-10.35,21.08-21.7,31.47-32.7,2.11-4.23,4.77-8.12,7.39-12.04.95,0,1.9,0,2.84,0h0Z"/>
        <path class="cls-8" d="m100.08,267.79c-.13,6.81.17,13.61.95,20.38,2.55,7.93,4.67,15.94,6.45,24.08l-3.22.28c-.1-.27-.18-.18-.19-.19-.16-.41-.22-.91-.38-1.33-.96-2.52-2.33-5.51-3.03-8.06-3.16-11.42-2.35-23.46-2.46-35.17h1.9,0Z"/>
        <path class="cls-14" d="m115.43,267.79c4.02,13.35,11.08,32.68,19.34,43.8.17.87-2.69.84-3.41.09-1.15-1.18-11.38-23.01-12.7-26.16-1.18-2.82-1.52-6.35-3.22-6.16-1.1-3.85-2.4-7.64-3.22-11.56h3.22,0Z"/>
        <path class="cls-3" d="m32.58,312.53c.13,0,.28-.01.57,0,.45.02,2.75-.54,2.84.09-1.96,2.56-3.92,5.12-5.88,7.68-.88,0-1.77,0-2.65,0-3.63-.02-7.27.02-10.9,0-.2-.14-.06-.87-.09-1.14.65-.1.22.6.47.76.42.28,4.8-7.02,5.5-7.39.34-.18,4.66-.29,4.93-.19.35.23.2.37.09.66-.14.4-4.5,5.67-5.12,6.82,1.67.03,3.35.06,5.02.09l5.21-7.39h0Z"/>
        <g>
          <path class="cls-14" d="m163.59,312.25c.17-.22,4.83-.18,5.5.09-3.32-3.6-6.64-7.2-9.95-10.81-13.41-7.32-19.59-22.12-28.53-33.75-1.2,0-2.4,0-3.6,0v.19c.57.07,1.54-.1,1.8,0,.61.23,7.24,10.06,7.3,10.71.06.69-.45.31-.38.85.11.55.47,1.05.76,1.52.44-.06.86-.38,1.33-.09.42.25,2.06,4.22,5.12,8.34,3.04,4.1,6.83,7.68,10.24,11.47,3.37,3.75,6.85,7.38,10.05,11.28-3.79.02-7.59.23-11.37.28,2.91,3.78,3.03,3.93,5.72,7.42.8-.02,1.52.16,2.16.61,2.7-.28,10.79-.06,12.02-.07-2.72-2.69-5.43-5.37-8.15-8.06h0Z"/>
          <path class="cls-2" d="m157.56,319.76c.11.14.22.29.35.45-1.55.37-10.78-.17-11.28.09-.19.1-.06.55-.09.76.42.69,1.02,4.19,1.14,5.21.76,8.34.72,27.95,1.71,34.32.47,3.04-.45,10.88.65,13.7l8.85-.13-.39-8.17c.26-15.13.11-30.28.38-45.41.04-.09.36-.17.87-.22-.64-.45-1.36-.62-2.16-.61h0Z"/>
        </g>
        <g>
          <path class="cls-14" d="m139.52,267.79c5.26,9.96,12.31,19.12,18.49,28.25-7.84-5.55-9.28-8.63-14.51-15.55l.76-.28c-1.84-4.28-4.65-8.08-6.26-12.42.5,0,1.01,0,1.52,0Z"/>
          <path class="cls-10" d="m138,267.79c1.61,4.33,4.42,8.14,6.26,12.42l-.76.28c-3.13-4.15-6.28-8.32-9.1-12.7,1.2,0,2.4-.01,3.6,0Z"/>
        </g>
        <path class="cls-10" d="m160.75,282.58c-1.11-1.37-4.17-4.16-6.82-7.68-1-1.33-3.9-5.25-3.41-5.78,2.62,2.9,7.6,9.91,10.24,13.46h0Z"/>
        <path class="cls-14" d="m151.84,312.34c2.02,2.62,4.04,5.25,6.07,7.87-1.55.37-10.78-.17-11.28.09-.19.1-.06.55-.09.76-.08-.13-.57-.73-.66-.76-1.17-.02-2.34.03-3.51,0-2.22-2.6-4.53-5.07-6.63-7.77,5.36-.4,10.75-.11,16.11-.19h0Z"/>
        <g>
          <path class="cls-14" d="m90.6,267.79c-1.81,14.93-6.41,29.47-6.82,44.56-3.35.03-6.7.19-10.05.19v-.19c10.67-9.1,11.97-30.87,15.17-44.56h1.71,0Z"/>
          <path class="cls-3" d="m83.77,312.34h.19v7.96c-4.8,0-9.61-.02-14.41,0l4.17-7.77c3.35,0,6.7-.16,10.05-.19h0Z"/>
        </g>
        <path class="cls-14" d="m95.53,312.34c-.31,2.68-.94,5.33-1.52,7.96-3.35,0-6.7,0-10.05,0v-7.96c3.85-.03,7.71,0,11.56,0h0Z"/>
        <path class="cls-14" d="m73.72,312.34v.19l-4.17,7.77c-2.91,0-5.81-.03-8.72,0,1.63-2.64,3.41-5.18,5.12-7.77.15-.22.18-.18.19-.19h7.58Z"/>
        <g>
          <path class="cls-14" d="m103.68,267.79c.79,15.2,2.61,30.72,8.82,44.75,2.79-.58,5.66.04,8.44,0,.62.85,1.79,7.06,2.09,7.3.14.12,1.12.16,1.23.09.34-.19-2.11-6.65-1.8-7.58.98-.04,1.96.02,2.94,0-1.02-4.59-3.04-9.17-4.46-13.75-1.96-6.37-3.66-12.84-5.5-19.25,1.7-.19,2.04,3.34,3.22,6.16,1.33,3.15,11.56,24.99,12.7,26.16.73.74,3.59.77,3.41-.09.19.25.38.51.57.76-1.49-.17-3.06.19-3.22.19-1.37,0-2.76-.25-4.17-.19-.97.05-1.94-.2-2.27.28.82,2.56,1.64,5.12,2.46,7.68-4.05-.02-8.09,0-12.13,0l-3.22-7.49c-.54-.62-5.13-.69-5.31-.19.7,2.56,1.39,5.12,2.09,7.68h-2.27c-.91-2.63-2.02-5.18-3.03-7.77l3.22-.28c-1.78-8.14-3.9-16.15-6.45-24.08-.77-6.77-1.08-13.57-.95-20.38h3.6Z"/>
          <path class="cls-3" d="m116,320.31c-2.15,0-4.3,0-6.45,0-.7-2.56-1.39-5.12-2.09-7.68.18-.5,4.77-.43,5.31.19l3.22,7.49h0Z"/>
        </g>
        <path class="cls-3" d="m132.12,312.53c1.39,2.59,2.78,5.18,4.17,7.77-1.83-.02-3.67,0-5.5,0l-2.84-7.96c1.41-.06,2.8.19,4.17.19h0Z"/>
        <path class="cls-17" d="m135.34,312.34s.37.17.38.19c2.11,2.7,4.42,5.17,6.63,7.77-2.02-.06-4.05.02-6.07,0-1.39-2.59-2.78-5.18-4.17-7.77.16,0,1.74-.36,3.22-.19h0Z"/>
        <path class="cls-3" d="m65.95,312.53c-1.71,2.59-3.48,5.13-5.12,7.77-1.01,0-2.02-.02-3.03,0l4.74-7.77h.19c.71,0,2.16-.52,3.22,0Z"/>
        <path class="cls-3" d="m127.95,312.34l2.84,7.96c-.88,0-1.77,0-2.65,0-.82-2.56-1.64-5.12-2.46-7.68.34-.48,1.31-.24,2.27-.28h0Z"/>
        <path class="cls-14" d="m182.17,312.34v7.87c-1.96.19-3.92.07-5.88.09-1.12-1.25-6.52-7.48-7.01-7.77,4.3-.06,8.6-.13,12.89-.19h0Z"/>
        <path class="cls-17" d="m169.09,312.34c.27.11.18.18.19.19.5.3,5.9,6.52,7.01,7.77-1.51.02-3.03,0-4.55,0-2.72-2.69-5.43-5.37-8.15-8.06.17-.22,4.83-.18,5.5.09h0Z"/>
        <path class="cls-14" d="m153.17,300.78c-7.78,1.32-12.28-12.69-16.68-19.72.44-.06.86-.38,1.33-.09.42.25,2.06,4.22,5.12,8.34,3.04,4.1,6.83,7.68,10.24,11.47h0Z"/>
        <path class="cls-14" d="m135.72,279.54c-1.12-1.41-1.96-1-3.98-3.32-1.34-1.54-3.9-6.14-4.74-8.25.57.07,1.54-.1,1.8,0,.61.23,7.24,10.06,7.3,10.71.06.69-.45.31-.38.85h0Z"/>
        <g>
          <path class="cls-14" d="m80.17,267.79c-6.21,15.62-6.64,13.17-14.22,21.52-6.93,7.63-13.56,15.55-20.67,23.04l6.26.09c-1.05,1.48-4.64,6.42-5.69,7.11.33,1.1,1.97.29,2.78.62,1.07.02,2.24.34,3.28.45v-.02c.22-.49,5.03-.27,5.88-.28,1.58-2.59,3.16-5.18,4.74-7.77-3.42-.02-7.01-.14-10.43-.47,3.19-4.18,7.72-8.48,10.81-12.51,2.73-3.57,4.77-7.68,7.58-11.18,5.37-6.69,8.9-6.85,11.94-20.57h-2.27Z"/>
          <path class="cls-2" d="m49.08,320.78c.06.39-1.23,5.07-1.52,7.77-.52,4.97-.31,9.99-.95,14.98-.44,3.48-1.32,8.31-2.46,11.56-.07.2,0,.45.19.57-.55.87-1.82-4.76-2.27-5.12-.54-3.89-.62-12.36-1.52-8.06.06,2.34.13,4.68.19,7.01.24,9.51.69,19.02.57,28.53.18.47,1.18.62,1.61.47.97-.33,6.16-.44,6.16-.44.57-19.47,2.27-37.98,2.84-57.45-1.05-.11-2.21-.43-3.28-.45.23.09.39.27.44.61h0Z"/>
          <path class="cls-2" d="m40.55,342.49c-.19-7.39-.19-14.79-.57-22.18,1.8-.07,3.59-.33,5.4-.19.11-.36.19-.38.47-.57.43,1.41,3-.32,3.22,1.23.06.39-1.23,5.07-1.52,7.77-.52,4.97-.31,9.99-.95,14.98-.44,3.48-1.32,8.31-2.46,11.56-.07.2,0,.44.19.57-.55.87-1.82-4.76-2.27-5.12-.54-3.89-.62-12.36-1.52-8.06h0Z"/>
        </g>
        <path class="cls-3" d="m45.29,312.34l6.26.09c-1.05,1.48-4.64,6.42-5.69,7.11-.28.19-.36.21-.47.57-1.81-.14-3.6.12-5.4.19-.38.02-.76-.01-1.14,0l6.07-7.77s.38-.19.38-.19Z"/>
        <path class="cls-14" d="m66.14,312.34s-.04-.03-.19.19c-1.06-.52-2.51,0-3.22,0,12.23-16.68,15.74-24.8,22.09-44.37-2.63,17.78-9.01,29.51-18.68,44.18Z"/>
        <path class="cls-14" d="m122.45,312.34c-.31.94,2.14,7.39,1.8,7.58-.11.06-1.09.02-1.23-.09-.29-.24-1.47-6.45-2.09-7.3.08,0,.25-.14,1.52-.19Z"/>
        <g>
          <path class="cls-14" d="m98.18,267.79c.12,11.71-.69,23.75,2.46,35.17.71,2.56,2.08,5.54,3.03,8.06.33,1.62-2.66,1.19-2.84,1.04-.16-.13-.96-3.44-1.14-3.98-.05-.16-.33-.03-.38-.19-.08-.24.27-.32.19-.57-1.39-4.52-2.56-9.12-3.03-13.84-.34-3.46,1.01-5.94-1.52-5.97.19-6.56.85-13.16,1.14-19.72h2.09Z"/>
          <path class="cls-3" d="m101.03,312.53c.62,2.54,1.56,5.29,1.71,7.77-2.15,0-4.3,0-6.45,0,.57-2.65,1.14-5.31,1.71-7.96,1.01,0,2.07.19,3.03.19h0Z"/>
          <path class="cls-17" d="m104.06,312.34s.09-.08.19.19c1.02,2.59,2.12,5.14,3.03,7.77h-4.55c-.14-2.48-1.08-5.24-1.71-7.77.15,0,1.65-.36,3.03-.19h0Z"/>
          <path class="cls-17" d="m97.99,312.34c-.57,2.65-1.14,5.31-1.71,7.96h-2.27c.58-2.63,1.21-5.28,1.52-7.96h2.46Z"/>
          <path class="cls-14" d="m103.68,311.02c.16.42.22.91.38,1.33-1.38-.17-2.88.19-3.03.19-.96,0-2.03-.19-3.03-.19h-2.46c.25-2.15.53-3.68.38-5.97-1.52-6.21-1.13-12.55-.95-18.87,2.53.03,1.17,2.51,1.52,5.97.47,4.72,1.64,9.32,3.03,13.84.08.25-.27.32-.19.57.05.16.33.03.38.19.18.54.98,3.85,1.14,3.98.18.15,3.18.58,2.84-1.04h0Z"/>
        </g>
      </g>
      <g id="Layer_1-2-3" data-name="Layer 1-2">
        <g>
          <g>
            <path class="cls-4" d="m278.41,355.16c23.48,0,47.05,1.01,70.28.99,14.78-.01,66.47-8.29,49.67-31.71-9.36-13.04-22.08-13.97-36.43-15.06,16.63-10.78,23.27-25.32,4.18-40.43-7.18-5.68-37.44-12.19-38.32,3.68-4.51-6.82-5.81-13.92-14.5-16.86-7.38-2.5-16.16.61-23.01,3.5-8.29,3.5-11.42,5.49-9.88,15.63.96,6.35,4.06,13.62,11.67,8.43-18.54-18.6-54.92,25.27-30.17,36.2-12.26,1.19-32.83,16.18-20.93,29.7,8.27,9.4,26.49,5.5,37.45,5.92"/>
            <path class="cls-12" d="m275.98,350.92c23.48,0,47.05,1.01,70.28.99,14.78-.01,66.47-8.29,49.67-31.71-9.36-13.04-22.08-13.97-36.43-15.06,16.63-10.78,23.27-25.32,4.18-40.43-7.18-5.68-37.44-12.19-38.32,3.68-4.51-6.82-5.81-13.92-14.5-16.86-7.38-2.5-16.16.61-23.01,3.5-8.29,3.5-11.42,5.49-9.88,15.63.96,6.35,4.06,13.62,11.67,8.43-18.54-18.6-54.92,25.27-30.17,36.2-12.26,1.19-32.83,16.18-20.93,29.7,8.27,9.4,26.49,5.5,37.45,5.92"/>
          </g>
          <g>
            <line class="cls-1" x1="250.6" y1="366.25" x2="256.78" y2="374.49"/>
            <line class="cls-1" x1="265.75" y1="366.25" x2="271.93" y2="374.49"/>
            <line class="cls-1" x1="278.58" y1="366.25" x2="284.77" y2="374.49"/>
            <line class="cls-1" x1="293.72" y1="366.25" x2="299.91" y2="374.49"/>
            <line class="cls-1" x1="308.23" y1="366.25" x2="314.41" y2="374.49"/>
            <line class="cls-1" x1="323.37" y1="366.25" x2="329.55" y2="374.49"/>
            <line class="cls-1" x1="336.21" y1="366.25" x2="342.39" y2="374.49"/>
            <line class="cls-1" x1="351.35" y1="366.25" x2="357.53" y2="374.49"/>
            <line class="cls-1" x1="364.7" y1="366.25" x2="370.88" y2="374.49"/>
            <line class="cls-1" x1="379.84" y1="366.25" x2="386.03" y2="374.49"/>
          </g>
        </g>
      </g>
    </g>
  </g>
</svg>