<?xml version="1.0" encoding="UTF-8"?>
<svg id="Layer_2" data-name="Layer 2" xmlns="http://www.w3.org/2000/svg" viewBox="0 0 900.58 580.51">
  <defs>
    <style>
      .cls-1 {
        fill: none;
        stroke: #000;
        stroke-miterlimit: 10;
        stroke-width: 3px;
      }
    </style>
  </defs>
  <g id="Layer_1-2" data-name="Layer 1">
    <g>
      <line class="cls-1" x1="1.57" y1="190.56" x2="3.95" y2="147.49"/>
      <line class="cls-1" x1="1.57" y1="190.56" x2="1.5" y2="197.43"/>
      <line class="cls-1" x1="64.31" y1="537.3" x2="64.31" y2="510.32"/>
      <line class="cls-1" x1="83.18" y1="180.81" x2="62.06" y2="169.03"/>
      <line class="cls-1" x1="55.69" y1="169.51" x2="75.57" y2="181.65"/>
      <line class="cls-1" x1="82.33" y1="164.47" x2="83.18" y2="180.81"/>
      <line class="cls-1" x1="123.95" y1="161.29" x2="82.33" y2="164.47"/>
      <line class="cls-1" x1="75.57" y1="181.65" x2="83.18" y2="180.81"/>
      <line class="cls-1" x1="142.61" y1="199.96" x2="1.5" y2="197.43"/>
      <line class="cls-1" x1="141.2" y1="237.14" x2="28.82" y2="198.69"/>
      <line class="cls-1" x1="1.5" y1="197.43" x2="79.38" y2="236.01"/>
      <path class="cls-1" d="m64.31,537.3c0,9.69,36.15,17.52,77.32,17.52"/>
      <line class="cls-1" x1="140.33" y1="564.11" x2="140.33" y2="554.82"/>
      <g>
        <line class="cls-1" x1="899.08" y1="239.84" x2="899.08" y2="197.03"/>
        <line class="cls-1" x1="338.78" y1="59.42" x2="1.57" y2="190.56"/>
        <line class="cls-1" x1="726.44" y1="47.89" x2="338.78" y2="59.42"/>
        <line class="cls-1" x1="899.08" y1="239.84" x2="726.44" y2="47.89"/>
        <line class="cls-1" x1="899.08" y1="197.03" x2="728" y2="1.5"/>
        <line class="cls-1" x1="338.73" y1="5.12" x2="728" y2="1.5"/>
        <line class="cls-1" x1="726.44" y1="47.89" x2="728" y2="1.5"/>
        <line class="cls-1" x1="338.78" y1="59.42" x2="338.24" y2="24.7"/>
        <line class="cls-1" x1="727.22" y1="15.7" x2="338.24" y2="24.7"/>
        <line class="cls-1" x1="338.73" y1="5.12" x2="338.24" y2="24.7"/>
        <line class="cls-1" x1="338.24" y1="24.7" x2="3.47" y2="160.96"/>
        <line class="cls-1" x1="338.73" y1="5.12" x2="3.95" y2="147.49"/>
        <line class="cls-1" x1="707.65" y1="264.85" x2="899.08" y2="239.84"/>
        <line class="cls-1" x1="899.08" y1="212.79" x2="728" y2="17.26"/>
        <line class="cls-1" x1="707.5" y1="48.46" x2="882.44" y2="242.02"/>
        <line class="cls-1" x1="679.81" y1="61.99" x2="665.16" y2="146.66"/>
        <line class="cls-1" x1="688.43" y1="145.24" x2="707.5" y2="48.46"/>
        <line class="cls-1" x1="496.21" y1="163.65" x2="707.5" y2="48.46"/>
        <line class="cls-1" x1="679.22" y1="49.3" x2="485.63" y2="157.49"/>
        <line class="cls-1" x1="368.69" y1="58.53" x2="485.63" y2="157.49"/>
        <line class="cls-1" x1="496.21" y1="163.65" x2="636.07" y2="259.14"/>
        <line class="cls-1" x1="659.11" y1="164.32" x2="636.07" y2="259.14"/>
        <line class="cls-1" x1="657.01" y1="148.86" x2="703.84" y2="493.87"/>
        <line class="cls-1" x1="657.01" y1="148.86" x2="675.5" y2="143.87"/>
        <line class="cls-1" x1="723.66" y1="498.07" x2="675.5" y2="143.87"/>
        <line class="cls-1" x1="739.99" y1="493.58" x2="688.43" y2="145.24"/>
        <line class="cls-1" x1="675.5" y1="143.87" x2="688.43" y2="145.24"/>
        <line class="cls-1" x1="700.9" y1="236.16" x2="861.13" y2="218.44"/>
        <line class="cls-1" x1="699.68" y1="227.3" x2="855.07" y2="211.73"/>
        <line class="cls-1" x1="699.22" y1="219.52" x2="849.64" y2="205.72"/>
        <line class="cls-1" x1="695.53" y1="197.03" x2="831.08" y2="185.19"/>
        <line class="cls-1" x1="694.4" y1="188.76" x2="824.05" y2="177.41"/>
        <line class="cls-1" x1="804.8" y1="156.12" x2="691.46" y2="167.35"/>
        <line class="cls-1" x1="689.62" y1="153.92" x2="797.9" y2="146.36"/>
        <line class="cls-1" x1="690.63" y1="134.08" x2="777.38" y2="125.77"/>
        <line class="cls-1" x1="693.07" y1="121.68" x2="767.67" y2="115.03"/>
        <line class="cls-1" x1="697.97" y1="99.27" x2="749.34" y2="94.75"/>
        <line class="cls-1" x1="700.37" y1="84.65" x2="737.87" y2="82.06"/>
        <line class="cls-1" x1="705.22" y1="60.02" x2="717.15" y2="59.14"/>
        <line class="cls-1" x1="588.93" y1="91.78" x2="423.21" y2="93.87"/>
        <line class="cls-1" x1="587.4" y1="66.1" x2="588.93" y2="91.78"/>
        <line class="cls-1" x1="423.39" y1="68.48" x2="423.21" y2="93.87"/>
        <line class="cls-1" x1="587.4" y1="66.1" x2="423.39" y2="68.48"/>
        <line class="cls-1" x1="463.47" y1="162.67" x2="345.39" y2="59.22"/>
        <line class="cls-1" x1="386.1" y1="144.44" x2="288.52" y2="81.17"/>
        <line class="cls-1" x1="378.46" y1="146.86" x2="278.59" y2="82.83"/>
        <line class="cls-1" x1="385.41" y1="120.97" x2="309.29" y2="70.89"/>
        <line class="cls-1" x1="378.46" y1="146.86" x2="386.18" y2="147.22"/>
        <line class="cls-1" x1="386.18" y1="147.22" x2="385.41" y2="120.97"/>
        <line class="cls-1" x1="307.14" y1="154.3" x2="223.67" y2="106.05"/>
        <line class="cls-1" x1="297.35" y1="156.96" x2="213.85" y2="108.01"/>
        <line class="cls-1" x1="307.14" y1="154.3" x2="306.67" y2="132.48"/>
        <line class="cls-1" x1="249.32" y1="95.93" x2="306.67" y2="132.48"/>
        <line class="cls-1" x1="297.35" y1="156.96" x2="307.14" y2="154.3"/>
        <line class="cls-1" x1="229.27" y1="162.55" x2="170.18" y2="128.63"/>
        <line class="cls-1" x1="230.2" y1="143.39" x2="229.27" y2="162.55"/>
        <line class="cls-1" x1="191.54" y1="116.68" x2="230.2" y2="143.39"/>
        <line class="cls-1" x1="229.27" y1="162.55" x2="221.81" y2="163.95"/>
        <line class="cls-1" x1="156.84" y1="130.18" x2="221.81" y2="163.95"/>
        <line class="cls-1" x1="154.19" y1="170.95" x2="113.42" y2="147.06"/>
        <line class="cls-1" x1="105.01" y1="150.33" x2="146.27" y2="174.21"/>
        <line class="cls-1" x1="154.19" y1="170.95" x2="146.27" y2="174.21"/>
        <line class="cls-1" x1="155.13" y1="147.06" x2="154.19" y2="170.95"/>
        <line class="cls-1" x1="186.49" y1="145.59" x2="155.13" y2="147.06"/>
        <line class="cls-1" x1="269.25" y1="140.49" x2="230.93" y2="143.87"/>
        <line class="cls-1" x1="347.35" y1="126.92" x2="306.67" y2="132.48"/>
        <line class="cls-1" x1="414.58" y1="119.84" x2="385.41" y2="120.97"/>
        <line class="cls-1" x1="144.02" y1="193.48" x2="1.57" y2="190.56"/>
        <line class="cls-1" x1="144.19" y1="237.19" x2="79.38" y2="236.01"/>
        <line class="cls-1" x1="142.61" y1="199.96" x2="154.66" y2="484.29"/>
        <line class="cls-1" x1="176.63" y1="453.07" x2="163.35" y2="198.69"/>
        <line class="cls-1" x1="298.07" y1="185.44" x2="163.35" y2="198.69"/>
        <line class="cls-1" x1="144.02" y1="193.48" x2="463.47" y2="162.67"/>
        <line class="cls-1" x1="176.63" y1="453.07" x2="298.07" y2="185.44"/>
        <line class="cls-1" x1="190.66" y1="490.23" x2="328.52" y2="181.23"/>
        <line class="cls-1" x1="167.34" y1="486.12" x2="176.63" y2="453.07"/>
        <line class="cls-1" x1="328.52" y1="181.23" x2="411.97" y2="175.33"/>
        <line class="cls-1" x1="463.47" y1="162.67" x2="308.8" y2="224.56"/>
        <line class="cls-1" x1="275.97" y1="234.15" x2="208.69" y2="262.07"/>
        <line class="cls-1" x1="165.83" y1="246.12" x2="208.69" y2="262.07"/>
        <line class="cls-1" x1="210.87" y1="224.03" x2="208.69" y2="262.07"/>
        <line class="cls-1" x1="209.78" y1="254.09" x2="278" y2="226.21"/>
        <line class="cls-1" x1="312.89" y1="215.58" x2="411.97" y2="175.33"/>
        <line class="cls-1" x1="239.22" y1="224.03" x2="163.75" y2="206.36"/>
        <line class="cls-1" x1="246.24" y1="219.91" x2="163.35" y2="198.69"/>
        <line class="cls-1" x1="246" y1="223.79" x2="239.22" y2="224.03"/>
        <line class="cls-1" x1="247.19" y1="200.19" x2="246" y2="223.79"/>
        <line class="cls-1" x1="284.77" y1="210.71" x2="223.71" y2="193.62"/>
        <line class="cls-1" x1="287.19" y1="206.59" x2="235.34" y2="192.07"/>
        <line class="cls-1" x1="412.3" y1="57.23" x2="423.39" y2="68.48"/>
        <line class="cls-1" x1="587.4" y1="66.1" x2="612.74" y2="51.27"/>
        <line class="cls-1" x1="481.86" y1="108.01" x2="514.96" y2="92.82"/>
        <line class="cls-1" x1="460.3" y1="93.4" x2="481.86" y2="108.01"/>
        <line class="cls-1" x1="485.63" y1="157.49" x2="481.86" y2="108.01"/>
        <line class="cls-1" x1="703.84" y1="493.87" x2="654.53" y2="272.35"/>
        <line class="cls-1" x1="290.72" y1="264.28" x2="654.53" y2="272.35"/>
        <line class="cls-1" x1="208.69" y1="262.07" x2="262.5" y2="263.82"/>
        <line class="cls-1" x1="479.37" y1="168.56" x2="576.24" y2="236.43"/>
        <line class="cls-1" x1="649.53" y1="213.94" x2="665.67" y2="212.62"/>
        <line class="cls-1" x1="576.24" y1="236.43" x2="306.91" y2="228.72"/>
        <line class="cls-1" x1="442.04" y1="483.2" x2="509.55" y2="269.14"/>
        <line class="cls-1" x1="421.53" y1="464.12" x2="487.94" y2="268.66"/>
        <line class="cls-1" x1="365.56" y1="265.94" x2="426.37" y2="481.24"/>
        <line class="cls-1" x1="404.59" y1="481.33" x2="342.35" y2="265.43"/>
        <line class="cls-1" x1="337.31" y1="213.15" x2="434.75" y2="232.57"/>
        <line class="cls-1" x1="360.98" y1="203.68" x2="537.95" y2="235.33"/>
        <line class="cls-1" x1="385.8" y1="193.75" x2="561.65" y2="224.32"/>
        <line class="cls-1" x1="407.52" y1="185.06" x2="539.09" y2="209.04"/>
        <line class="cls-1" x1="434.57" y1="174.23" x2="504.5" y2="185.6"/>
        <line class="cls-1" x1="148.63" y1="517.51" x2="148.63" y2="484.33"/>
        <line class="cls-1" x1="152.39" y1="519.17" x2="148.63" y2="517.51"/>
        <line class="cls-1" x1="148.63" y1="484.33" x2="154.4" y2="485.75"/>
        <line class="cls-1" x1="152.39" y1="519.17" x2="166.84" y2="519.3"/>
        <line class="cls-1" x1="154.4" y1="485.75" x2="154.52" y2="519.19"/>
        <line class="cls-1" x1="167.34" y1="486.12" x2="154.4" y2="485.75"/>
        <line class="cls-1" x1="166.84" y1="519.3" x2="167.34" y2="486.12"/>
        <line class="cls-1" x1="191.31" y1="519.11" x2="166.84" y2="519.3"/>
        <line class="cls-1" x1="190.66" y1="490.23" x2="191.31" y2="519.11"/>
        <line class="cls-1" x1="167.34" y1="486.12" x2="190.66" y2="490.23"/>
        <line class="cls-1" x1="148.63" y1="484.33" x2="154.46" y2="481.59"/>
        <line class="cls-1" x1="404.59" y1="481.33" x2="403.18" y2="505.41"/>
        <line class="cls-1" x1="441.78" y1="505.94" x2="403.18" y2="505.41"/>
        <line class="cls-1" x1="442.04" y1="483.2" x2="441.78" y2="505.94"/>
        <line class="cls-1" x1="404.59" y1="481.33" x2="442.04" y2="483.2"/>
        <line class="cls-1" x1="703.84" y1="493.87" x2="705.07" y2="526.41"/>
        <line class="cls-1" x1="726.6" y1="527.7" x2="705.07" y2="526.41"/>
        <line class="cls-1" x1="746.32" y1="527.06" x2="726.6" y2="527.7"/>
        <line class="cls-1" x1="739.99" y1="493.58" x2="746.32" y2="527.06"/>
        <line class="cls-1" x1="723.66" y1="498.07" x2="739.99" y2="493.58"/>
        <line class="cls-1" x1="703.99" y1="497.85" x2="723.66" y2="498.07"/>
        <line class="cls-1" x1="726.6" y1="527.7" x2="723.66" y2="498.07"/>
        <line class="cls-1" x1="667.56" y1="132.75" x2="550.35" y2="181.43"/>
        <line class="cls-1" x1="545.51" y1="177.49" x2="668.78" y2="125.73"/>
        <line class="cls-1" x1="550.35" y1="181.43" x2="545.51" y2="177.49"/>
        <line class="cls-1" x1="521.46" y1="160.61" x2="673.33" y2="99.45"/>
        <line class="cls-1" x1="516.08" y1="157.09" x2="674.7" y2="91.54"/>
        <line class="cls-1" x1="516.08" y1="157.09" x2="521.46" y2="160.61"/>
        <line class="cls-1" x1="578.35" y1="200.63" x2="572.42" y2="197.05"/>
        <line class="cls-1" x1="657.6" y1="168.16" x2="578.35" y2="200.63"/>
        <line class="cls-1" x1="572.42" y1="197.05" x2="658.61" y2="160.59"/>
        <line class="cls-1" x1="605.08" y1="218.37" x2="649.86" y2="202.41"/>
        <line class="cls-1" x1="600.59" y1="215.35" x2="651.18" y2="196.95"/>
        <line class="cls-1" x1="600.59" y1="215.35" x2="605.08" y2="218.37"/>
        <line class="cls-1" x1="627.47" y1="237.59" x2="624.1" y2="234.72"/>
        <line class="cls-1" x1="643.81" y1="227.3" x2="624.1" y2="234.72"/>
        <line class="cls-1" x1="642.73" y1="231.72" x2="627.47" y2="237.59"/>
        <line class="cls-1" x1="573.68" y1="181.97" x2="572.42" y2="197.05"/>
        <line class="cls-1" x1="516.08" y1="157.09" x2="517.01" y2="152.31"/>
        <line class="cls-1" x1="546.92" y1="162.78" x2="545.66" y2="177.85"/>
        <line class="cls-1" x1="602.48" y1="200.55" x2="601.23" y2="215.62"/>
        <line class="cls-1" x1="625.78" y1="219.76" x2="624.53" y2="234.84"/>
        <line class="cls-1" x1="573.68" y1="181.97" x2="564.32" y2="175.63"/>
        <line class="cls-1" x1="547.08" y1="162.85" x2="537.72" y2="156.51"/>
        <line class="cls-1" x1="544.43" y1="161.06" x2="535.08" y2="154.72"/>
        <line class="cls-1" x1="602.77" y1="200.71" x2="593.42" y2="194.37"/>
        <line class="cls-1" x1="625.89" y1="220.03" x2="617.11" y2="214.08"/>
        <line class="cls-1" x1="602.48" y1="200.55" x2="655.43" y2="179.46"/>
        <line class="cls-1" x1="573.68" y1="181.97" x2="657.01" y2="148.86"/>
        <line class="cls-1" x1="546.92" y1="162.78" x2="672.48" y2="110.24"/>
        <line class="cls-1" x1="625.78" y1="219.76" x2="647.59" y2="211.73"/>
        <path class="cls-1" d="m64.31,510.32c0,11.28,81.53,20.41,182.28,20.41"/>
        <path class="cls-1" d="m140.33,564.11c212.78,16.95,471.92,18.09,636.79,10.11"/>
        <path class="cls-1" d="m813.96,557.93c0,3.42-16.48,6.19-36.84,6.19"/>
        <line class="cls-1" x1="777.12" y1="564.11" x2="777.12" y2="574.22"/>
        <line class="cls-1" x1="813.96" y1="524.27" x2="813.96" y2="557.93"/>
        <path class="cls-1" d="m745.24,512.89c30.47,0,38.26,0,68.73,11.39"/>
        <path class="cls-1" d="m703.73,512.89c-44.67-5.57-117.18-8.72-261.82-11.14"/>
        <path class="cls-1" d="m402.29,501.75c0,.5-99.29-4.05-211.42-1.99"/>
        <path class="cls-1" d="m147.81,500.92c-23.51,0-82.38,0-83.5,9.4"/>
        <line class="cls-1" x1="246.59" y1="530.73" x2="246.59" y2="550.49"/>
        <line class="cls-1" x1="259.59" y1="544.63" x2="246.59" y2="550.49"/>
        <line class="cls-1" x1="259.59" y1="530.73" x2="259.59" y2="544.63"/>
        <line class="cls-1" x1="246.59" y1="530.73" x2="259.59" y2="530.73"/>
        <line class="cls-1" x1="672.48" y1="537.3" x2="672.48" y2="554.82"/>
        <line class="cls-1" x1="654.24" y1="553.45" x2="654.48" y2="535.45"/>
        <line class="cls-1" x1="672.48" y1="537.3" x2="654.48" y2="535.45"/>
        <line class="cls-1" x1="672.48" y1="554.82" x2="654.24" y2="553.45"/>
        <path class="cls-1" d="m259.59,530.73c0,2.61,176.62,4.73,394.89,4.73"/>
        <path class="cls-1" d="m259.59,544.63c0,4.88,176.51,8.82,394.64,8.82"/>
        <path class="cls-1" d="m672.48,554.82c0-2.4-99.66,16.74-425.89-4.33"/>
        <path class="cls-1" d="m672.48,537.3c72.75,0,107.12-1.84,141.48-13.03"/>
      </g>
    </g>
  </g>
</svg>