<?xml version="1.0" encoding="UTF-8"?>
<svg id="Layer_2" data-name="Layer 2" xmlns="http://www.w3.org/2000/svg" viewBox="0 0 89.42 162.04">
  <defs>
    <style>
      .cls-1 {
        fill: #282017;
      }

      .cls-1, .cls-2, .cls-3, .cls-4, .cls-5, .cls-6, .cls-7, .cls-8 {
        stroke-width: 0px;
      }

      .cls-2 {
        fill: #6e665b;
      }

      .cls-3 {
        fill: #413932;
      }

      .cls-4 {
        fill: #251d16;
      }

      .cls-5 {
        fill: #d2824a;
      }

      .cls-6 {
        fill: #abbfa6;
      }

      .cls-7 {
        fill: #fff2cb;
      }

      .cls-8 {
        fill: #fcc596;
      }
    </style>
  </defs>
  <g id="Layer_1-2" data-name="Layer 1">
    <path class="cls-6" d="m89.2,151.85c-.98-38.47-.06-77.03-2.95-115.41-.8-10.55-.04-31.67-.04-31.67l-.13.04c-27.02,8.29-55.91,8.27-82.93-.04h0C2.12,45.55-.11,114.46,0,155.26c0,0,29.7,7.2,44.6,6.76,50.52-1.5,44.6-10.17,44.6-10.17h0Z"/>
    <path class="cls-1" d="m18.25,99.54c17.03.85,34.07,1.71,51.12,1.36,5.35-.11,11.86-1.11,13.82-6.09,1.69-4.28-1.09-8.93-3.88-12.6-5.55-7.3-11.8-14.35-19.79-18.85s-18.05-6.16-26.43-2.41c-9.69,4.33-15.09,14.57-19.78,24.09-1.48,3.01-3,6.23-2.6,9.56s3.67,4.73,7.54,4.94"/>
    <path class="cls-3" d="m60.86,100.98c1.76-4.4,1.23-13.05-1.11-17.17s-6.41-7.16-10.95-8.51c-2.48-.74-5.17-.99-7.64-.22-4.41,1.37-7.32,5.79-8.24,10.32s-.34,10.29.38,14.86"/>
    <path class="cls-4" d="m9.79,50.49c9.46-2.75,21.87-2.25,31.33-5.01,6.41-1.86,13.15-3.74,19.67-2.29-17.09-4.18-35.76-1.51-51,7.29"/>
    <path class="cls-2" d="m17.09,135.58c7.89,7.01,17.15,1.97,24.21,1.76-7.34-3.94-16.37-4.59-24.21-1.76"/>
    <path class="cls-2" d="m73.01,136.28c.5-.05,1.01-.05,1.51,0,.06,0,.13,0,.19.02.16.02.13,0-.12-.02.07.04.2.03.28.05.25.05.49.1.74.17s.48.15.72.24c.04.02.09.03.13.05.11.04.06.02-.14-.06.05.07.26.12.34.16.45.22.88.49,1.29.79.29.22.82.24,1.16.15s.73-.36.9-.69c.18-.35.28-.77.15-1.16s-.36-.65-.69-.9c-1.81-1.35-4.21-2.01-6.46-1.8-.41.04-.76.14-1.06.44-.26.26-.46.69-.44,1.06.03.75.66,1.58,1.5,1.5h0Z"/>
    <path class="cls-2" d="m73.9,127.04h-6.05c-.78,0-1.54.69-1.5,1.5.04.81.66,1.5,1.5,1.5h6.05c.78,0,1.54-.69,1.5-1.5s-.66-1.5-1.5-1.5h0Z"/>
    <path class="cls-2" d="m31.7,122.76h-4.1c-.78,0-1.54.69-1.5,1.5s.66,1.5,1.5,1.5h4.1c.78,0,1.54-.69,1.5-1.5s-.66-1.5-1.5-1.5h0Z"/>
    <path class="cls-2" d="m48.97,146.98h-2.31c-.38,0-.79.17-1.06.44s-.46.69-.44,1.06.14.79.44,1.06.65.44,1.06.44h2.31c.38,0,.79-.17,1.06-.44s.46-.69.44-1.06-.14-.79-.44-1.06-.65-.44-1.06-.44h0Z"/>
    <path class="cls-2" d="m56.09,137.87c.41-.04.82-.04,1.22,0l-.4-.05c.44.06.86.17,1.27.34.2.06.4.07.6.03.2,0,.39-.07.56-.18.31-.18.61-.54.69-.9.09-.38.07-.81-.15-1.16l-.23-.3c-.19-.19-.41-.31-.66-.39-.4-.17-.82-.28-1.25-.34-.55-.08-1.09-.13-1.65-.07-.21,0-.4.04-.58.13-.19.06-.35.16-.48.31-.26.26-.46.69-.44,1.06s.14.79.44,1.06c.27.25.67.48,1.06.44h0Z"/>
    <path class="cls-2" d="m71.58,117.24c-2.85-.11-5.71,0-8.55.36-.78.1-1.54.62-1.5,1.5.03.73.67,1.6,1.5,1.5,2.84-.35,5.69-.47,8.55-.36.78.03,1.54-.71,1.5-1.5-.04-.84-.66-1.47-1.5-1.5h0Z"/>
    <path class="cls-2" d="m23.86,104.09c-2.4-.2-4.8-.07-7.18.31-.78.12-1.28,1.13-1.05,1.85.27.84,1.01,1.18,1.85,1.05.15-.02.3-.05.45-.07.06,0,.13-.02.19-.03-.16.02-.19.03-.07.01.28-.03.56-.07.84-.09.54-.05,1.09-.09,1.63-.11,1.11-.04,2.22,0,3.33.08.78.07,1.53-.74,1.5-1.5-.04-.87-.66-1.43-1.5-1.5h.01Z"/>
    <path class="cls-2" d="m79.96,104.96c1.02-.09,2.05-.12,3.07-.08.5.02,1,.06,1.5.11.12.01.24.03.36.04.08,0,.16.02.24.03l-.16-.02c.28.02.56.09.83.13.41.07.79.06,1.16-.15.31-.18.61-.54.69-.9.17-.73-.22-1.7-1.05-1.85-2.2-.39-4.42-.52-6.64-.31-.78.07-1.54.64-1.5,1.5.03.75.66,1.58,1.5,1.5h0Z"/>
    <path class="cls-2" d="m81.75,67.2c-1.66-.38-3.31-.76-4.97-1.13-.76-.17-1.66.23-1.85,1.05-.17.76.23,1.66,1.05,1.85,1.66.38,3.31.76,4.97,1.13.76.17,1.66-.23,1.85-1.05.17-.76-.23-1.66-1.05-1.85h0Z"/>
    <path class="cls-2" d="m53.6,49.71c-5.6-.2-11.14.98-16.21,3.36-.73.34-.92,1.4-.54,2.05.44.75,1.32.88,2.05.54,4.59-2.15,9.64-3.13,14.7-2.95,1.93.07,1.93-2.93,0-3h0Z"/>
    <path class="cls-2" d="m11.52,62.87c3.73-1.64,7.75-2.76,11.8-3.29.8-.1,1.5-.62,1.5-1.5,0-.73-.69-1.6-1.5-1.5-4.62.6-9.05,1.82-13.31,3.7-.74.33-.91,1.41-.54,2.05.45.77,1.31.87,2.05.54h0Z"/>
    <path class="cls-2" d="m80.13,43.51c-3.18.25-6.17-.03-9.2-.88-.76-.21-1.67.26-1.85,1.05s.24,1.62,1.05,1.85c3.24.91,6.64,1.25,10,.99.78-.06,1.54-.65,1.5-1.5-.03-.76-.66-1.57-1.5-1.5h0Z"/>
    <path class="cls-2" d="m62.86,31.91l-6.59.15c-.78.02-1.54.68-1.5,1.5s.66,1.52,1.5,1.5l6.59-.15c.78-.02,1.54-.68,1.5-1.5s-.66-1.52-1.5-1.5h0Z"/>
    <path class="cls-2" d="m46.48,29.62c-4.74-.15-9.48.3-14.11,1.33-.79.18-1.25,1.09-1.05,1.85.22.82,1.05,1.22,1.85,1.05,4.37-.97,8.83-1.37,13.31-1.22,1.93.06,1.93-2.94,0-3h0Z"/>
    <path class="cls-2" d="m19.93,36.31c-2.92.3-5.73,1.22-8.2,2.83-.66.43-.99,1.35-.54,2.05.42.66,1.35,1,2.05.54.55-.36,1.11-.68,1.7-.98.27-.14.55-.26.83-.38-.31.14.19-.07.25-.1.14-.05.29-.11.43-.16.6-.21,1.2-.39,1.82-.53.3-.07.6-.13.9-.18.06,0,.62-.09.25-.04.17-.02.35-.04.52-.06.78-.08,1.54-.63,1.5-1.5-.03-.74-.66-1.58-1.5-1.5h-.01Z"/>
    <path class="cls-2" d="m83.65,30.56c-5.83-3.17-12.38-4.83-19.01-4.8-1.93,0-1.93,3.01,0,3,6.11-.03,12.13,1.47,17.5,4.39,1.7.92,3.21-1.67,1.51-2.59h0Z"/>
    <path class="cls-2" d="m20.12,145.56h-3.21c-.38,0-.79.17-1.06.44s-.46.69-.44,1.06c.04.81.66,1.5,1.5,1.5h3.21c.38,0,.79-.17,1.06-.44s.46-.69.44-1.06c-.04-.81-.66-1.5-1.5-1.5h0Z"/>
    <path class="cls-2" d="m18.73,121.63c-3.97-.71-8.14.1-11.46,2.43-.66.46-.97,1.31-.54,2.05.38.66,1.39,1.01,2.05.54,1.44-1.01,2.79-1.62,4.48-2,1.45-.33,3.24-.38,4.66-.13.8.14,1.62-.22,1.85-1.05.2-.73-.25-1.7-1.05-1.85h0Z"/>
    <path class="cls-4" d="m73.56,112.63c-19.12-14.36-47.68-2.03-51.49,1.6"/>
    <path class="cls-8" d="m86.2,4.77c0-1.77-18.6-4.77-41.55-4.77S3.14,3,3.14,4.77s18.56,6.24,41.51,6.24,41.55-4.47,41.55-6.24Z"/>
    <path class="cls-7" d="m80.89,4.91c0-1.44-16.22-3.88-36.24-3.88S8.45,3.47,8.45,4.91s16.19,5.08,36.2,5.08,36.24-3.64,36.24-5.08Z"/>
    <path class="cls-5" d="m60.53,5.25c0-.63-7.1-1.7-15.87-1.7s-15.85,1.07-15.85,1.7,7.09,2.22,15.85,2.22,15.87-1.59,15.87-2.22Z"/>
  </g>
</svg>