<?xml version="1.0" encoding="UTF-8"?>
<svg id="Layer_2" data-name="Layer 2" xmlns="http://www.w3.org/2000/svg" viewBox="0 0 748.78 1066.7">
  <defs>
    <style>
      .cls-1 {
        fill: #54432e;
      }

      .cls-1, .cls-2, .cls-3, .cls-4, .cls-5 {
        stroke-width: 0px;
      }

      .cls-2 {
        fill: #42210b;
      }

      .cls-3 {
        fill: #c69c6d;
      }

      .cls-4 {
        fill: #8c6239;
      }

      .cls-5 {
        fill: #bb7232;
      }
    </style>
  </defs>
  <g id="Layer_1-2" data-name="Layer 1">
    <g>
      <path class="cls-1" d="m11.77,105.85c5.03,40.44-6.17,76.36,5.87,117.41,12.87,43.89,11.73,85.94,11.73,131.98,0,73.14-37.51,160.22-16.21,230.44,11.3,37.24,32.7,66.08,36.73,106.65s.29,80.66-.15,119.84c-.48,42.06-18.88,82.23-20.37,124.91-.7,19.94,1.21,37.03,10.51,54.49,15.73,29.53,17.68,13.6,42.29,20.57,19.83,5.62,21.75,21.78,39.3,29.17,12.33,5.19,39.22,2.45,53.21,3.17,40.21,2.04,71.11,13.46,109.89,20.69,26.37,4.92,31.05-3,52.79-10.45,21.15-7.25,30.77-2.51,53.52,2.14,43.66,8.93,81.01-28.43,127.02-18.25,26.21,5.8,35.71,20.67,63.72,8.78,22.51-9.55,31.7-32.38,55.8-35.32,24.16-2.95,33.05,13.74,54.96-7.3,15.5-14.89,14.64-36.8,14.56-57.08-.1-23.84,1.54-32.9,11.73-52.74,12.41-24.17,21.82-33.93,20.53-62.88-2.39-54.02,2.93-108.55,2.93-163.62,0-46.79-9.71-93.73-2.96-139.73,7.1-48.36,6.41-92.59,8.83-141.4,4.19-84.39-10.14-165.05-11.74-248.85-.35-18.31,3.65-35.09,2.93-53.16"/>
      <path class="cls-5" d="m11.31,101.7c-9.73-14.48-20.67-24.29,2.37-31.95,13.9-4.62,24.89-3,38.91-1,16.76,2.4,24.02-2.1,35.73-13.48s18.39-13.76,35.7-15.42c25.27-2.42,48.72-14.87,73.86-18.94,15.6-2.52,29.56-1.59,44.67-7.18,15.41-5.71,25.13-11.55,41.94-12.37,52.22-2.55,101.72-1.88,152.34,5.38,13.86,1.99,25.59,7.26,39.18,10.08,12.87,2.67,23.54-3,35.9-4.16s28.58-2.24,40.97-.33c14.14,2.17,27.28,12.29,42.39,9.72,19.46-3.32,28.12-9.46,48.38-1.14,14.48,5.95,29.42,14.45,44.29,18.9,15.81,4.73,31.52,1.34,43.71,16.54,4.11,5.13,8.7,13.61,6.84,20.58-2.87,10.76-5.87,5.52-16.08,4.28,3.09,13.07,21.76,19.41,5.11,29.75-4.67,2.9-12.69,1.7-15.52,4.72-5.15,5.5-1.44,15.91-6.01,21.16-6.16,7.07-29.35,14.54-38.27,15.74-12.89,1.73-25.25-2.56-37.77-3.81-55.12-5.51-103.18,42.39-158.39,42.3-29.47-.05-53.53-8.1-80.91-16.19-15.28-4.52-26.48-9.94-42.58-9.92-17.46.02-35.14,1.88-52.19,4.43-28.02,4.2-58.8,12.66-87.95,7.94-14.75-2.39-20.92-14.83-33.75-21.37-8.28-4.22-21.35-4.22-31-4.75-17.38-.95-33.87-2.38-51.1-4.09-9.84-.97-36.27-5.8-41.51-15.85-8-15.34,11.85-13.77-7.11-23.61-4.28-2.22-27.43,22.4-31.41.83"/>
      <path class="cls-2" d="m143.2,151.19c0,11.47-3.18,49-.77,60.11,2.99,13.79,7.87,22.73,7.28,39.72-.4,11.67-5.77,24.46-5.55,35.34.33,16.94,16.47,24.53,18.18,39.87,1.4,12.54-7.5,28.17-7.16,41.78.3,12.09,2.89,19.06,7.31,30.18,2.48,6.25,3.35,13.89,7.27,19.51,4.44,6.36,12.35,7.3,16.11,14.35,5.17,9.7-1.45,31.45-2.96,41.23-2.07,13.38-2.84,27.04-2.23,40.84.64,14.52,7.68,28.73,5.34,42.9,12.89-23.81,7.16-48.36,11.97-74.5,4.55-24.77,8.66-40.9,6.28-65.37-5.14-52.9-4.89-103.81-14.93-156.58-4.86-25.52-2.72-63.63,5.85-88.65"/>
      <path class="cls-2" d="m371.38,169.07c0,40.21-19.56,99.94-9.97,138.74,3.55,14.35,5.56,11.26,1.42,27.42-2.64,10.3-5.97,21.87-5.52,32.84.6,14.6,2.89,35.68,6.94,49.1,6.94,23.04,5,34.04,4.08,58.3-.68,18.15,4.42,50.52,25.09,24.17,28.07-35.78.16-91.41.42-129.85.24-35.3,14.76-74.39,21.4-108.93,4.12-21.41,3.75-55.47,13.91-74.12"/>
      <path class="cls-2" d="m315.46,1062.1c0-24.49-.42-59.59-1.78-83.8-.85-15.17,1.83-15.63,8.66-24.96,1.61-2.2,19-31.58,18.81-31.53,23.04-6.69,6.68,56.72,8.93,66,2.88,11.87,10.38,19.12,12.38,31.98,1.85,11.86,3.23,21.8,5.87,33.2"/>
      <path class="cls-2" d="m483.11,1038.41c0-9.08.05-18.16-.09-27.23-.16-9.76-3.69-20.02-3.59-29.64.15-13.45,10.85-20.14,14.34-31.99,2.33-7.91.17-19.33.46-27.55,43.81-1.26,32.5,24.14,36.26,57.71,1.62,14.48,7.98,25.36,13.64,37.91,5.69,12.61,7.02,19.27,10.04,33.4"/>
      <path class="cls-2" d="m98.07,1021.21c0-19.85-3.56-42.96-3.1-62.05s15.18-48.45,31.05-26.46c14.23,19.71,5.53,40.43,5.38,61.72-.14,18.92,11.16,30.42,12.34,50.11"/>
      <path class="cls-2" d="m364.69,712.3c-3.06,14.69-13.19,26.94-8.84,43.37,3.92,14.8,17.26,27.86,26.37,39.52,12.12,15.52,22.55,87.56,45.11,32.94,11.56-27.98,4.68-62.39,8.41-92.14,1.94-15.49,5.95-29.49,10.17-44.66,5.97-21.44,2.03-29.11-10.13-48.26-21.64-34.09-17.47-74.64-34.29-108.74-1.67,43.61-17.17,74.4-28.14,115.62-6.92,25.98-3.36,36.48-8.66,62.35"/>
      <path class="cls-2" d="m235.34,721.41c18.55-14.1-3.57-26.39,4.06-44.13,4.24-9.85,16-14.95,19.76-24.7s-.94-15.97-1.8-25.16c-1.83-19.57-1.24-39.95-1.98-59.46-.4-10.5-.95-17.59-3.65-27.2-3.22-11.44-13.07-23.31-10.83-35.39-3.91,21.04-18.75,37.38-21.82,58.29-3.05,20.8,2.01,42.85-.12,63.78-.67,6.56-1.22,20.59-3.53,26.56-4.76,12.29-17.5,17.03-23.87,29.15-9.91,18.85-8.66,41.52-7.64,62.02,1.15,23.22,7.42,43.1,13.52,65.48,10.67-9.9,11.51-29.93,16.34-43.76,4.01-11.46,13.56-39.41,21.55-45.5"/>
      <path class="cls-2" d="m60.45,635.79c-15.74-26.38,3.36-51.71-2.19-78.74-3.21-15.64-10.06-26.24-10.56-42.87-.38-12.41,1.41-25.9-1.05-37.79,13.46,32.58,24.32,60.13,26.53,95.56,1.19,19.06,4.32,40.05.95,59.12-2.62,14.83-8.84,31-8.22,43.25.46-12.17.6-28-5.47-38.52"/>
      <path class="cls-2" d="m588.78,654.01c-22.38-20.74-13.39-32.99-27.33-55.05-10.93-17.3-14.08-23.47-9.15-43.36,3.11-12.53,8.96-21.67,3.82-36.35-4.58-13.07-16.84-22.44-20.66-36.45s-.17-30.72.49-45.31c1.45-31.84-1.27-54.35,19.81-80.12-.67,12.33-7.57,25.37-5.16,38.02,2.53,13.28,15.63,26.2,21.38,38.62,10.35,22.36,11.29,45.32,16.72,68.7,6.11,26.3,25.38,46.59,31.28,72.1,5.23,22.61-.82,42.31-6.67,63.94-6.75,24.98-6.15,52.09-15.42,76.72-8.47-19.14,1.14-44.04-9.11-61.46"/>
      <path class="cls-2" d="m674.4,415.35c-7.31-26.92-27.18-37.32-37.52-61.72-9.98-23.55,7.36-37.36,4.77-60.44-4.64-41.28-38.39-75.56-20.08-119.59,4.95,14.33,18.58,22.07,25.54,35.42,6.26,12.02,14.05,26.05,18.58,38.67,8.4,23.39-.73,49.97,5.93,74.01,6.48,23.4,17.94,40.3,19.18,65.5.97,19.74,5.37,51.64-5.15,67.76-1.18-16.93-.48-25.53-11.24-39.61"/>
      <path class="cls-2" d="m639.79,952.79c0-21.59,1.25-37.67,6.88-58.21,3.96-14.43,10.45-26.21,15.02-39.86,5.13-15.34-1.49-17.16-5.41-32.12-5.08-19.39,1.62-44.74,4.98-63.33,3.36-18.58-.26-45.01,9.51-61.06,12.9,19.56,10.93,54.36,10.93,77.47,0,11.04-2.2,24.33,2.1,34.61,2.6,6.21,9.41,6.88,12.11,14.5,2.17,6.14.65,15.85.37,22.43-2.22,52.12-15.47,104.29-36.84,151.15-8.45-15.52-19.63-25.73-19.63-45.57"/>
      <path class="cls-3" d="m51.89,100.57c-8.63-11.83-18.33-19.86,2.1-26.12,12.33-3.78,22.07-2.45,34.5-.82,14.86,1.96,21.3-1.72,31.68-11.02s16.3-11.25,31.66-12.6c22.41-1.98,43.2-12.16,65.49-15.48,13.83-2.06,26.21-1.3,39.6-5.87,13.67-4.66,22.28-9.44,37.18-10.11,46.31-2.08,90.2-1.54,135.07,4.4,12.29,1.62,22.69,5.94,34.74,8.24,11.41,2.18,20.87-2.45,31.84-3.4,11.02-.95,25.34-1.83,36.32-.27,12.53,1.78,24.19,10.05,37.58,7.94,17.26-2.71,24.93-7.73,42.9-.93,12.84,4.86,26.09,11.81,39.27,15.44,14.02,3.86,27.95,1.09,38.76,13.52,3.65,4.19,7.71,11.12,6.06,16.82-2.55,8.79-5.2,4.51-14.25,3.5,2.74,10.68,19.29,15.87,4.54,24.32-4.14,2.37-11.25,1.39-13.76,3.86-4.57,4.49-1.28,13-5.33,17.29-5.46,5.78-26.02,11.89-33.93,12.87-11.43,1.42-22.38-2.09-33.49-3.11-48.88-4.51-91.49,34.65-140.44,34.57-26.13-.04-47.46-6.62-71.74-13.24-13.55-3.69-23.48-8.12-37.75-8.11-15.48.01-31.16,1.54-46.28,3.62-24.85,3.43-52.13,10.35-77.98,6.49-13.08-1.96-18.55-12.12-29.93-17.47-7.34-3.45-18.93-3.45-27.49-3.88-15.41-.77-30.03-1.95-45.31-3.34-8.73-.8-32.16-4.74-36.81-12.95-7.09-12.54,10.51-11.26-6.3-19.29-3.8-1.81-24.32,18.31-27.85.68"/>
      <path class="cls-4" d="m217.53,97.94c-4.13-5.66-8.77-9.5,1.01-12.49,5.9-1.81,10.56-1.17,16.5-.39,7.11.94,10.19-.82,15.16-5.27s7.8-5.38,15.15-6.03c10.72-.95,20.67-5.82,31.33-7.41,6.62-.99,12.54-.62,18.95-2.81s10.66-4.52,17.79-4.84c22.15-1,43.15-.73,64.62,2.1,5.88.78,10.86,2.84,16.62,3.94,5.46,1.04,9.99-1.17,15.23-1.62,5.27-.45,12.12-.88,17.38-.13,6,.85,11.57,4.81,17.98,3.8,8.25-1.3,11.93-3.7,20.52-.44,6.14,2.33,12.48,5.65,18.79,7.39,6.71,1.85,13.37.52,18.54,6.47,1.74,2,3.69,5.32,2.9,8.05-1.22,4.21-2.49,2.16-6.82,1.67,1.31,5.11,9.23,7.59,2.17,11.63-1.98,1.13-5.38.66-6.58,1.84-2.18,2.15-.61,6.22-2.55,8.27-2.61,2.76-12.45,5.69-16.23,6.16-5.47.68-10.71-1-16.02-1.49-23.38-2.16-43.77,16.58-67.19,16.54-12.5-.02-22.71-3.17-34.32-6.33-6.48-1.77-11.23-3.89-18.06-3.88-7.41,0-14.91.74-22.14,1.73-11.89,1.64-24.94,4.95-37.31,3.1-6.26-.94-8.88-5.8-14.32-8.36-3.51-1.65-9.06-1.65-13.15-1.86-7.37-.37-14.37-.93-21.68-1.6-4.18-.38-15.39-2.27-17.61-6.2-3.39-6,5.03-5.38-3.01-9.23-1.82-.87-11.64,8.76-13.32.32"/>
    </g>
  </g>
</svg>