<?xml version="1.0" encoding="UTF-8"?>
<svg id="Layer_1" data-name="Layer 1" xmlns="http://www.w3.org/2000/svg" viewBox="0 0 148.15 221.45">
  <defs>
    <style>
      .cls-1, .cls-2, .cls-3, .cls-4 {
        stroke-width: 0px;
      }

      .cls-2 {
        fill: #88a80d;
      }

      .cls-3 {
        fill: #07733e;
      }

      .cls-4 {
        fill: #b6622e;
      }
    </style>
  </defs>
  <path class="cls-2" d="m7.61,117.43c.33,9.27,2.71,18.42,6.81,26.73s9.8,15.76,16.79,21.8c3.96,3.43,8.33,6.35,13,8.72,1.14.58.14,2.3-1,1.72-8.5-4.31-16-10.51-21.98-17.92s-10.51-16.02-13.12-25.2c-1.46-5.16-2.31-10.5-2.5-15.86-.05-1.28,1.95-1.28,2,0h0Z"/>
  <path class="cls-4" d="m71.42,198.15c7.94,6.09,16.89,10.83,26.38,13.99,9.49,3.17,19.38,4.8,29.34,4.8,5.66,0,11.3-.53,16.86-1.6,1.26-.25,1.79,1.68.53,1.92-10.05,1.95-20.37,2.16-30.51.74-10.08-1.41-19.92-4.47-29.03-9.02-5.14-2.57-10.03-5.62-14.59-9.12-.43-.33-.65-.86-.36-1.36.24-.43.94-.69,1.36-.36h0Z"/>
  <path class="cls-1" d="m138.39,213.57l.96,6.81c.13.91,1.17,1.37,1.93.85l6.33-4.36c.84-.58.66-1.87-.31-2.2l-7.29-2.45c-.87-.29-1.75.43-1.62,1.34h-.01Z"/>
  <path class="cls-3" d="m7.57,1.22C1.65,18.22.98,36.92,3.08,54.67c.59,5.02,1.46,10.01,2.58,14.94.28,1.25-1.64,1.78-1.92.53C-.33,52.16-1.31,33.12,1.96,14.94c.86-4.84,2.07-9.61,3.69-14.25C6.06-.52,7.99,0,7.57,1.22h0Z"/>
</svg>