<?xml version="1.0" encoding="UTF-8"?>
<svg id="Layer_1" data-name="Layer 1" xmlns="http://www.w3.org/2000/svg" viewBox="0 0 332.82 222.66">
  <defs>
    <style>
      .cls-1, .cls-2, .cls-3, .cls-4 {
        stroke-width: 0px;
      }

      .cls-2 {
        fill: #88a80d;
      }

      .cls-3 {
        fill: #07733e;
      }

      .cls-4 {
        fill: #b6622e;
      }
    </style>
  </defs>
  <path class="cls-2" d="m156.33,11.43c-13.93.49-27.68,4.08-40.17,10.24s-23.68,14.73-32.77,25.24c-5.15,5.95-9.55,12.52-13.11,19.54-.87,1.72-3.46.21-2.59-1.51,6.48-12.77,15.79-24.05,26.93-33.03s24.07-15.8,37.87-19.72c7.76-2.2,15.78-3.47,23.83-3.75,1.93-.07,1.93,2.93,0,3h.01Z"/>
  <path class="cls-4" d="m35.01,107.33c-9.16,11.93-16.27,25.38-21.03,39.65s-7.22,29.13-7.22,44.1c0,8.5.79,16.99,2.41,25.34.37,1.89-2.53,2.69-2.89.8-2.93-15.11-3.25-30.61-1.11-45.85,2.12-15.15,6.72-29.94,13.55-43.63,3.86-7.73,8.45-15.08,13.71-21.93.5-.65,1.29-.97,2.05-.54.64.36,1.03,1.41.54,2.05h0Z"/>
  <path class="cls-1" d="m11.84,207.99l-10.24,1.44c-1.37.19-2.06,1.76-1.27,2.9l6.55,9.52c.87,1.26,2.81.99,3.3-.46l3.68-10.95c.44-1.31-.65-2.63-2.02-2.43v-.02Z"/>
  <path class="cls-3" d="m330.99,11.37c-25.55-8.89-53.66-9.9-80.33-6.74-7.55.89-15.04,2.19-22.45,3.87-1.88.42-2.68-2.47-.8-2.89,27.02-6.11,55.63-7.58,82.96-2.67,7.27,1.3,14.44,3.11,21.42,5.54,1.81.63,1.03,3.53-.8,2.89h0Z"/>
</svg>