<?xml version="1.0" encoding="UTF-8"?>
<svg id="Layer_2" data-name="Layer 2" xmlns="http://www.w3.org/2000/svg" viewBox="0 0 212.14 61.37">
  <defs>
    <style>
      .cls-1, .cls-2 {
        fill: none;
      }

      .cls-1, .cls-3, .cls-4, .cls-5, .cls-6, .cls-7, .cls-8, .cls-9 {
        stroke-width: 0px;
      }

      .cls-10 {
        font-family: Nunito-Black, Nunito;
        font-weight: 800;
      }

      .cls-10, .cls-5 {
        fill: #42210b;
      }

      .cls-11 {
        font-size: 10.34px;
      }

      .cls-2 {
        stroke: #f1b500;
        stroke-miterlimit: 10;
      }

      .cls-3 {
        fill: #894a23;
      }

      .cls-4 {
        fill: #97622e;
      }

      .cls-6 {
        fill: #d2824a;
      }

      .cls-7 {
        fill: #ac8158;
      }

      .cls-8 {
        fill: #b6622e;
      }

      .cls-9 {
        fill: #eca26a;
      }

      .cls-12 {
        font-size: 13.41px;
      }
    </style>
  </defs>
  <g id="Layer_1-2" data-name="Layer 1">
    <g>
      <g>
        <rect class="cls-3" x="125.68" y="5.68" width="8.35" height="32.26" transform="translate(1.61 -8.03) rotate(3.56)"/>
        <rect class="cls-3" x="75.37" y="6.91" width="8.35" height="32.04" transform="translate(1.58 -4.9) rotate(3.56)"/>
        <g>
          <polygon class="cls-5" points="55.8 60.84 43.68 45.77 43.04 16.59 57.44 0 68.89 8.1 71.84 33.72 66.59 53.89 55.8 60.84"/>
          <polygon class="cls-1" points="21.35 60.84 9.23 45.77 8.59 16.59 22.99 0 34.44 8.1 37.39 33.72 32.14 53.89 21.35 60.84"/>
          <polygon class="cls-5" points="9.23 45.77 43.68 45.77 55.8 60.84 21.35 60.84 9.23 45.77"/>
          <polygon class="cls-7" points="43.04 16.59 8.59 16.59 22.99 0 57.44 0 43.04 16.59"/>
          <polygon class="cls-4" points="8.59 16.59 43.04 16.59 43.68 45.77 9.23 45.77 8.59 16.59"/>
          <polygon class="cls-6" points="56.02 56.77 45.53 43.72 44.97 18.44 57.44 4.07 67.36 11.09 69.91 33.28 65.36 50.75 56.02 56.77"/>
          <polygon class="cls-9" points="56.5 47.9 49.53 39.24 49.16 22.47 57.44 12.94 64.02 17.59 65.72 32.32 62.7 43.91 56.5 47.9"/>
          <polygon class="cls-8" points="57.01 38.46 53.8 34.48 53.63 26.76 57.44 22.38 60.47 24.52 61.25 31.29 59.86 36.63 57.01 38.46"/>
        </g>
        <polygon class="cls-8" points="159.91 12.94 57.44 12.94 58.76 5.13 159.91 4.07 159.91 12.94"/>
        <rect class="cls-2" x="148.89" y="13.6" width="3.34" height="0"/>
        <polygon class="cls-8" points="158.27 23.12 55.8 22.38 57.67 14.26 158.27 14.26 158.27 23.12"/>
        <polygon class="cls-8" points="156.1 33.31 53.63 33.31 55.46 24.44 156.1 24.44 156.1 33.31"/>
        <g>
          <polygon class="cls-5" points="196.11 60.84 183.99 45.77 183.35 16.59 197.74 0 209.19 8.1 212.14 33.72 206.89 53.89 196.11 60.84"/>
          <polygon class="cls-1" points="161.66 60.84 149.54 45.77 148.89 16.59 163.29 0 174.74 8.1 177.69 33.72 172.44 53.89 161.66 60.84"/>
          <polygon class="cls-5" points="149.54 45.77 183.99 45.77 196.11 60.84 161.66 60.84 149.54 45.77"/>
          <polygon class="cls-7" points="183.35 16.59 148.89 16.59 163.29 0 197.74 0 183.35 16.59"/>
          <polygon class="cls-4" points="148.89 16.59 183.35 16.59 183.99 45.77 149.54 45.77 148.89 16.59"/>
          <polygon class="cls-6" points="196.33 56.77 185.83 43.72 185.27 18.44 197.74 4.07 207.66 11.09 210.22 33.28 205.67 50.75 196.33 56.77"/>
          <polygon class="cls-9" points="196.8 47.9 189.84 39.24 189.47 22.47 197.74 12.94 204.33 17.59 206.02 32.32 203 43.91 196.8 47.9"/>
          <polygon class="cls-8" points="197.31 38.46 194.11 34.48 193.94 26.76 197.74 22.38 200.77 24.52 201.55 31.29 200.16 36.63 197.31 38.46"/>
        </g>
        <polygon class="cls-8" points="149.54 39.62 46.87 38.95 53.82 36.58 149.54 36.58 149.54 39.62"/>
        <rect class="cls-3" x="46.87" y="38.95" width="102.67" height="2.25"/>
        <rect class="cls-8" x="142.47" y="60.84" width=".53" height=".53"/>
      </g>
      <text class="cls-10" transform="translate(11.61 33.5)"><tspan class="cls-11" x="0" y="0">Boom</tspan><tspan class="cls-12" x="29.05" y="0"> </tspan></text>
      <text class="cls-10" transform="translate(152.1 33.5)"><tspan class="cls-11" x="0" y="0">Bouw</tspan><tspan class="cls-12" x="28.68" y="0"> </tspan></text>
    </g>
  </g>
</svg>