<?xml version="1.0" encoding="UTF-8"?>
<svg id="Layer_2" data-name="Layer 2" xmlns="http://www.w3.org/2000/svg" viewBox="0 0 543.28 1072.34">
  <defs>
    <style>
      .cls-1 {
        fill: #49412b;
      }

      .cls-1, .cls-2, .cls-3, .cls-4, .cls-5, .cls-6, .cls-7, .cls-8, .cls-9, .cls-10, .cls-11, .cls-12, .cls-13, .cls-14, .cls-15 {
        stroke-width: 0px;
      }

      .cls-2 {
        fill: #5e5342;
      }

      .cls-3 {
        fill: #524b3b;
      }

      .cls-4 {
        fill: #514933;
      }

      .cls-5 {
        fill: #886031;
      }

      .cls-6 {
        fill: #a2968b;
      }

      .cls-7 {
        fill: #ddd2ca;
      }

      .cls-8 {
        fill: #c6bcb9;
      }

      .cls-9 {
        fill: #a9998c;
      }

      .cls-10 {
        fill: #aca095;
      }

      .cls-11 {
        fill: #a8978e;
      }

      .cls-12 {
        fill: #cf9b56;
      }

      .cls-13 {
        fill: #b8aeab;
      }

      .cls-14 {
        fill: #916639;
      }

      .cls-15 {
        fill: #e8e2df;
      }
    </style>
  </defs>
  <g id="Layer_1-2" data-name="Layer 1">
    <g>
      <g>
        <path class="cls-15" d="m11.27,91.08c1.27,35.07-8.41,67.03-8.41,102.74S-.07,269.67,0,305.95c.14,74.37,2.86,150.34,2.86,225.4s1.4,152.49,8.49,225.31c3.86,39.69-4.1,71.14-8.25,109.44-4.06,37.56,10.62,73.62,22.18,108.48,26.77,80.76,136.34,86.1,210.36,93.17,39.23,3.75,79.92,6.57,119.68,2.84,41.37-3.88,94.4,3.09,124.84-30.58,23.71-26.21,47.69-80.66,57.81-114.32,6.18-20.56-1.85-33.21-4.83-52.74-2.94-19.21.97-38.35,2.35-57.08,2.84-38.48,3.87-77.49,5.5-115.94,1.47-34.54-14.08-64.15-14.01-98.79.07-36.73,12.24-70.81,8.47-108.76-1.82-18.36-10.5-37.17-11.04-56.08-.62-21.63,7.02-40.2,8.16-61.7,2.17-41-15.16-77.41-7.37-116,3.55-17.59,11.86-34.79,10.16-54.45-1.76-20.38-9.99-35.03-8.39-56.24,1.51-20.01,6.88-38.44,5.05-58.8-1.44,3.36-6.22,5.78-5.05,4.73"/>
        <path class="cls-7" d="m543.02,700.9c1.47-34.54-14.08-64.15-14.01-98.79.07-36.73,12.24-70.81,8.47-108.76-1.82-18.36-10.5-37.17-11.04-56.08-.62-21.63,7.02-40.2,8.16-61.7,2.17-41-15.16-77.41-7.37-116,3.55-17.59,11.86-34.79,10.16-54.45-1.76-20.38-9.99-35.03-8.39-56.24,1.51-20.01,15.94-56.81,14.11-77.17-1.44,3.36-15.28,24.15-14.11,23.1l-167.45-.9c4.11,16.8,10.88,33.49,17.67,51.4,4.16,16.46,4.16,32.93,0,49.39-12.48,24.7-20.8,53.51-20.8,82.32,4.16,49.39,58.25,94.67,20.8,135.83-20.8,28.81-62.41,41.16-62.41,82.32-4.16,53.51,8.32,107.02,54.09,144.06,33.28,24.7-16.64,78.21-37.44,119.37-24.96,61.74,37.44,111.14,37.44,164.65,2.8,47.17-22.69,103.68-11.61,148.12,41.08-3.5,92.93,2.73,122.9-30.41,23.71-26.21,47.69-80.66,57.81-114.32,6.18-20.56-1.85-33.21-4.83-52.74-2.94-19.21.97-38.35,2.35-57.08,2.84-38.48,3.87-77.49,5.5-115.94Z"/>
        <path class="cls-7" d="m184.29,898.22c37.44-61.74-24.96-119.37-58.25-176.99-8.32-12.35-8.32-32.93-4.16-49.39,12.48-45.28,79.05-65.86,66.57-111.14-8.32-28.81-24.96-61.74-37.44-86.44-16.64-37.05-41.6-74.09-24.96-107.02,16.64-37.05,49.93-69.97,66.57-111.14,16.64-37.05,12.48-90.55-4.16-131.72-5.72-11.32-9.63-22.66-12.25-34.37L6.55,71.72c1.27,35.07-3.69,84.44-3.69,120.15S-.07,267.71,0,304c.14,74.37,2.86,150.34,2.86,225.4s1.4,152.49,8.49,225.31c3.86,39.69-4.1,71.14-8.25,109.44-4.06,37.56,10.62,73.62,22.18,108.48,17.19,51.85,68.51,72.59,122.64,82.68-1.5-5.96-3.36-11.56-5.24-17.14-16.64-53.51,16.64-94.67,41.6-139.95Z"/>
      </g>
      <path class="cls-9" d="m537.29,663.2c-16.86.04-53.18,9.07-66.54.77-6.92-4.3-7.46-10.39-18.54-5.61-9.2,3.97-16.03,14.84-24.11,20.71-14.06,10.22-29.94,14.39-47,15.13-4.05.18-21.18,2.24-24.03-1.02-7.52-8.59,7.25-14.68,11.02-17.61-14.29-13.69-33.23.47-50.37,2.39-7.46.84-14.17-1.29-21.09-3.54-11.61-3.77-15.71-4.13-7.06-15.14,12.13-15.44,28.95-13.99,47.06-13.98,18.32.02,32.26-8.26,49.61-11.64,13.76-2.68,13.09-10.75,23.21-18.42,7.21-5.46,20.98-6.14,29.56-9.77-8.26-8.21-36.56-3.47-46.8-.9-16.12,4.04-30.37,14.55-46.37,17.48-32.63,5.97-68.36-7.73-100.88-6-4.93-17.21,23.98-10.77,23.44-27.09-.61-18.53-30.26-6.41-38.82-13.27,9.01-2.28,16.51-7.76,26.01-7.26,7.95.42,15.98,5.28,24.23,6.13,17.53,1.8,29.97-5.76,43.89-15.19,5.3-3.59,13.09-9.84,19.37-11.17,9.28-1.97,16.13,4.1,25.04,5.2,17.54,2.17,32.1-4.26,48.18-7.1,11.07-1.95,42.69,4.18,36.43-18.71-9.43-.47-30.18,6.33-38.6,0-8.71-6.55-3.52-13.06,1.71-16.16,11.61-6.88,34.59-3.4,47.82-5.84,28.41-5.22,53.18-20.95,74.19-40.1,4.83,13.82,1.74,35.77,2.56,50.57.97,17.44-7.41,34.14-7.59,51.48-.35,32.27-12.67,57.21,4.47,95.62"/>
      <path class="cls-4" d="m512.67,640.99c-9.81,0-19.47-.03-29.06-.91-6.49-.59-21.86.81-27.22-3.23-3.26-2.46-5.02-8.37-3.69-12.48,1.94-5.99,7.38-4.95,11.98-9.08,10.64-9.56,2.1-15.74-8.45-17.18-20.12-2.73-39.92-.22-60.04-3.9-9.05-1.66-21.66-.11-30.16-3.4-10.66-4.12-8.17-15.21,2.74-17.33,26.81-5.22,100.06,17.31,102.4-22.63.51-8.69-4.07-19.01-2.58-26.64,2.6-13.32,15.95-4.84,25.64-5.48,12.63-.83,17.97-11.19,28.81-14.86,15.47-5.24,13.76,5.84,9.69,16-8.71,21.79-.77,48.29.25,70.99.5,11.02.91,22.94-.02,33.92-1.23,14.4-7.79,16.13-21.21,16.22"/>
      <path class="cls-11" d="m317.76,837.69c-9.45,4.11-16.81,4.65-26.96,5.89-5.33.65-10.19,3.36-15.31,5.15-10.86,3.79-21.7,7.97-33.3,8.97-11.68,1.01-23.25-1.64-34.47-1.23-14.45.54-30.69,1.86-45.06.67-13.95-1.15-22.49-12.67-35.26-16.35-11.84-3.41-24.02-2.94-35.98-6-11.63-2.98-19.41-12.03-21.77-24.16-1.41-7.23.1-14.32,6.53-17.67,4.22-2.2,17.31-3.95,19.12-8.2,3-7.03-26.29-15.67-32.17-17.27-4.59-1.25-14.73-2.42-14.33-9.31.46-7.92,17.36-11.33,23.77-11.01,9.12.45,18.68,1.64,27.64,3.58,5.17,1.11,11.02,2.7,16.43,1.48,6.64-1.5,11.15-5.61,18.34-6.35,6.33-.66,14.34-1.64,20.78-.63,4.8.75,12.74,3.24,16.22,6.5,4.52,4.25,5.24,10.37,10.41,14.12,13.6,9.86,30.95,6.98,46.68,8.87,12.5,1.51,28.84-1.11,40.62,3.06,7.62,2.7,7.35,10.75-1.19,11.05-8.41.3-16.62-3.36-25.27-2.23-8.65,1.13-16.68,6.19-25.16,8.33-5.54,1.4-17.13.17-15.66,8.17,1.28,6.98,10.92,12.76,17.18,13.37,8.79.86,11.79.06,18.92,5.66,14.07,11.04,32.58,5.7,47.69.97,6.37-2,13.19-3.9,19.78-4.27,4.28-.24,16.77-1.36,19.76,2.43,4,5.08-6.57,13.6-10.98,14.64"/>
      <path class="cls-1" d="m196.4,829.45c-11.45,0-24.12-.45-34.52-5.28-7.55-3.5-9.33-1.97-17.54.06-4.03,1-8.06,1.6-12.34.99-8.8-1.26-24.7-4.07-31.51-9.89-14.32-12.23,9.44-15.87,14.68-22.64,4.38-5.64-2.96-7.68-4.91-13.26-2.34-6.68,3.34-9.76,9.4-11.65,11.04-3.45,21.51.56,32.28,2.25,5.41.85,11.16.94,16.49,2.09,7.36,1.59,12.18,7.7,19.23,8.49,4.53.51,9.45-2.25,13.52-.63,7.21,2.88,8.14,10.85-1.27,9.41-5.42-.83-38.62-8.4-33.04,7.73,1.98,5.71,14.97,10.25,19.52,14.2,5.78,5,10.05,9.82,13.58,16.38"/>
      <path class="cls-3" d="m481.96,898.9c-5.58-.29-15.37,3.61-20.93,5.41-7.78,2.52-14.65,8.75-22.4,12.13-5.86,2.55-11.72,6.03-17.97,7.64-5.07,1.31-10.37,1.46-15.39,3.44-23.71,9.33-49.92,5.26-75.01,5.52-9.82.1-27.34,3.18-36.17-.58-8.77-3.73-3.69-11.16,2.26-14.75,4.53-2.73,11.39-3.18,16.65-3.96,25.4-3.8,52.04,1.36,77.35-2.48,5.96-.91,12.65-1.53,18.28-3.5,3.63-1.27,6.62-4.21,10.25-5.35,5.09-1.6,11.38-1.37,16.69-2.47,15.73-3.28,32.59-10.27,48.68-9.8,3.21,8.03.11,8.59-5.86,12.3"/>
      <path class="cls-7" d="m144.05,608.42c-15.56.02-31.91,2.78-47.06-1.97-4.08-1.28-7.99-3.19-11.37-5.83-1.5-1.18-3.64.93-2.12,2.12,13.2,10.34,30.94,9.75,46.82,9.09,4.57-.19,9.15-.41,13.73-.42,1.93,0,1.93-3,0-3h0Z"/>
      <path class="cls-7" d="m143.62,522.7c-6.07-2.6-12.36-4.73-18.79-6.25-7.02-1.66-14.43-2.75-21.62-1.68-3.47.52-6.92,1.67-9.73,3.82-.78.59-1.16,2.08,0,2.59,8.43,3.69,17.34,5.69,26.49,6.55s18.44.7,27.66.7c1.93,0,1.93-3,0-3-17.79,0-35.98.43-52.63-6.84v2.59c4.95-3.79,11.59-4.14,17.58-3.7,6.96.5,13.84,2.24,20.45,4.41,3.07,1.01,6.11,2.13,9.08,3.4,1.76.75,3.29-1.83,1.51-2.59h0Z"/>
      <path class="cls-13" d="m181.53,481.61c-8.65,0-16.23.49-24.52,2.21-7.22,1.5-16.14,2.31-23.66,1.32-2.47-.32-10.46-1.77-11.64-4.39-2.03-4.52,8.76-5.94,12.23-6.23,7.72-.64,16.16-.14,23.8.62,7.31.73,21.63.91,27.37,5.88"/>
      <path class="cls-6" d="m11.39,366.85c8.88,3.58,15.4,11.49,21.67,18.26,5.16,5.57,6.74,13.24,12.26,18.25,4.95,4.5,13.47,7.99,20.16,8.22,10.63.36,13.65-4.02,17.46-12.95,3.38-7.93,7.65-7.14,15.93-7.06s10.98,5.33,18.43,8.11c7.07,2.64,12.67.95,19.11-1.63,8.09-3.24,17.33-3.61,25.98-4.74,9.82-1.28,11.54,1.44,18.84,7.24,4.42,3.51,15.51,6.03,19.91.47-5.93-10.49-19.73-21.78-32.1-21.8-5.72-.01-32.75,3.46-28.88-4.36,3.23-6.52,25.51-4.61,31.89-4.46,10.38.23,21.92,9.61,31.51,7.22,5.99-1.49,11.57-5.24,17.76-6.94,4.83-1.33,10.5-2.23,14.5-5.07-4.58-9.02-20.21-14.41-29.94-14.05-5.28.19-26.97,7.13-30.92,3.28-9.38-9.16,20.77-10.84,24.09-10.92,9.63-.23,21.37-.53,29.73-5.89,4.46-2.86,7.47-6,12.26-8.36,5.28-2.6,7.94-1.49,13.02-2.79-1.25-7.28-7.96-12.07-14.84-14.03-7.42-2.12-13.88-4.7-21.11-7.51-8.89-3.45-18.74-3.17-28.07-4.38-14.16-1.83-27.07-3.55-41.44-3.55-8.44,0-17.45.98-25.82,0s-14.01-6.48-19.94-11.75c-13.26-11.8-29.4-8.48-44.93-14.01-9.56-3.41-15.76-10.71-25.7-13.78-7.3-2.25-13.74-6.76-20.57-9.3-3.7,9.38-2.65,20.92-2.64,30.91.02,16.62-1.8,33.12-1.78,49.72.01,11.98-2.81,31.49,2.97,42.38"/>
      <path class="cls-10" d="m529.2,407.98c-11.99,0-17.84,1.01-28.07,7.26-9.3,5.68-11.67,11.57-22.92,5.4-11.53-6.32-12.35-14.9-19.85-23.28-6.74-7.54-17.95-4.6-26.72-2.86-5.39,1.07-18.1,4.8-22.78-.86-6.86-8.3,9.24-10.3-2.24-18.15-6.49-4.44-16.38-1.83-15.97-13.49.39-11.16,16.42-7.21,25.53-7.21s19.17.32,28.71,0c12.45-.41,16-3.02,22.32-13.5-9.19-9.06-33.58-19.28-6.31-25.37,7.89-1.76,15.95-1.06,23.65-2.61,10.06-2.02,13.15-10.11,18.22-18.75,6.01-10.24,19.77-20.66,27.57-5.84,7.79,14.82,3.4,38.7,3.4,54.46v46.83c0,9.08,1.45,19.41-1.82,27.88"/>
      <path class="cls-7" d="m530.43,417.9v21.64c0,1.93,3,1.93,3,0v-21.64c0-1.93-3-1.93-3,0h0Z"/>
      <path class="cls-2" d="m156.75,340.27c-10.18.42-20.06-2.81-29.8-1.81-10.29,1.06-19.07,7.18-29.88,7.42-11.7.27-49.42-9.78-50.23-25.75,17.06-7.44,36.27,8.8,52.99,11.05,16.66,2.24,38.97,5.21,55.07,5.45"/>
      <path class="cls-2" d="m118.23,376.56c-18.37,0-75.15,11.92-78.72-11.11,27.98-2.44,56.63,12.92,86.06,12.92"/>
      <path class="cls-8" d="m448.37,200.55c-24.52,9.69-47.6,12.88-73.83,14.92,23.57,4.52,57.52,14.05,68.33-14.92"/>
      <path class="cls-8" d="m419.03,300.35c16.15-.05,40.18-.54,50.52-12.84-23.09-7.31-40.68,5.92-61.53,12.84"/>
      <path class="cls-8" d="m37.53,577.97c21.1,21.22,56.31,42.02,87.16,41.41-33.91-18.99-61.38-41.63-100-50.48"/>
      <path class="cls-8" d="m450.21,786.65c-32.52-.97-58.66,14.06-83.81,32.35,34.2,2.21,56.54-17.3,85.64-30.53"/>
      <path class="cls-8" d="m77.88,884.63c33.62-2.97,66.16,26.72,98.12,32.62-20.7,14.47-111.76-2.11-107.15-32.48,4.19.27,9.27,1.31,12.69,3.49"/>
      <ellipse class="cls-14" cx="274.83" cy="71.72" rx="268.28" ry="71.72"/>
      <ellipse class="cls-12" cx="274.83" cy="71.72" rx="225.52" ry="60.29"/>
      <ellipse class="cls-5" cx="270.54" cy="71.72" rx="84.03" ry="22.46"/>
    </g>
  </g>
</svg>