<?xml version="1.0" encoding="UTF-8"?>
<svg id="Layer_2" data-name="Layer 2" xmlns="http://www.w3.org/2000/svg" viewBox="0 0 109 99.81">
  <defs>
    <style>
      .cls-1 {
        fill: #55322d;
      }

      .cls-1, .cls-2, .cls-3, .cls-4, .cls-5 {
        stroke-width: 0px;
      }

      .cls-2 {
        fill: #384a55;
      }

      .cls-3 {
        fill: #cc7c26;
      }

      .cls-4 {
        fill: #a15810;
      }

      .cls-5 {
        fill: #64828b;
      }
    </style>
  </defs>
  <g id="Layer_1-2" data-name="Layer 1">
    <g>
      <path class="cls-1" d="m48.37,27.73c.83.66,1.73,1.28,2.58,1.93,2.01,1.55,4.09,3.01,6.13,4.51,1.04.77,2.03,1.66,3.06,2.42,1.07.78,2.19,1.49,3.14,2.42,1.05-.92,1.88-2.04,2.82-3.06,3.09-3.36,12.11-13.45,14.51-16.45.23-.29,1.48-1.67,1.45-1.85-1.01-.7-1.82-1.71-2.74-2.5-.05-.04-.35.05-.4,0-.94-.81-1.86-1.62-2.82-2.42-2.47-2.05-4.96-4.06-7.42-6.13-.83-.69-1.6-1.4-2.42-2.1-1.55-1.33-3.06-2.69-4.6-4.03-6.33,7.53-12.43,15.25-18.3,23.14,1.58,1.47,3.31,2.78,5,4.11Z"/>
      <g>
        <path class="cls-5" d="m66.11,35.96c.57,8.2,1.76,22.11,4.35,29.67,18.9-4.08,29.24-13.28,37.25-30.64-5.28-3.78-20.61-11.08-27.09-15.48-2.4,3-11.42,13.09-14.51,16.45Z"/>
        <path class="cls-2" d="m107.71,34.99c-8,17.35-18.35,26.56-37.25,30.64.15.44.23.92.32,1.37l.4.24c14.17-2.28,26.97-10.58,34.1-23.14.49-.87,3.69-7.46,3.71-7.9.04-.98-1.07-1.05-1.29-1.21Z"/>
      </g>
      <g>
        <path class="cls-3" d="m2.58,85.94c4.35,3.96,8.81,7.74,13.38,11.45,8.77-8.53,2.95-13.14,10.32-25.07,6.71-10.87,22.68-27.2,30.8-38.13-2.04-1.51-4.12-2.97-6.13-4.51L2.58,85.94Z"/>
        <path class="cls-4" d="m15.96,97.39c.49.4,2.47,2.53,2.98,2.42,8.64-8.52,4.86-13.9,8.63-22.17,3.79-8.31,25.42-32.45,32.57-41.04-1.04-.76-2.02-1.65-3.06-2.42-8.12,10.93-24.09,27.26-30.8,38.13-7.37,11.94-1.55,16.54-10.32,25.07Z"/>
        <path class="cls-3" d="m48.37,27.73C32.32,46.47,16.32,65.26,0,83.76c0,.29,2.24,1.87,2.58,2.18L50.95,29.67c-.85-.65-1.75-1.28-2.58-1.93Z"/>
        <g>
          <path class="cls-3" d="m68.69,6.61c2.46,2.06,4.95,4.08,7.42,6.13l4.03-4.51c-2.38-2.06-4.79-4.03-7.26-5.97l-4.19,4.35Z"/>
          <path class="cls-4" d="m76.11,12.74c.96.79,1.88,1.61,2.82,2.42.06.05.35-.04.4,0l3.71-4.43c.04-.36-2.5-2.15-2.9-2.5l-4.03,4.51Z"/>
          <path class="cls-3" d="m66.27,4.51c.81.7,1.59,1.4,2.42,2.1l4.19-4.35c-.91-.71-1.71-1.58-2.66-2.26l-3.95,4.51Z"/>
        </g>
      </g>
    </g>
  </g>
</svg>