<?xml version="1.0" encoding="UTF-8"?>
<svg id="Layer_2" data-name="Layer 2" xmlns="http://www.w3.org/2000/svg" viewBox="0 0 167.65 223.1">
  <defs>
    <style>
      .cls-1 {
        fill: #88a80d;
      }

      .cls-1, .cls-2, .cls-3, .cls-4 {
        stroke-width: 0px;
      }

      .cls-2 {
        fill: #97622e;
      }

      .cls-3 {
        fill: #445407;
      }

      .cls-4 {
        fill: #667e0a;
      }
    </style>
  </defs>
  <g id="Layer_1-2" data-name="Layer 1">
    <rect class="cls-2" x="63.84" y="165.27" width="39.89" height="57.83" rx="12" ry="12"/>
    <path class="cls-3" d="m91.13,46.95l74.62,98.29c4.62,6.09.28,14.83-7.36,14.83H9.26c-7.64,0-11.98-8.74-7.36-14.82L76.4,46.95c3.7-4.88,11.03-4.88,14.73,0Z"/>
    <path class="cls-4" d="m91.33,23.64l62.12,82.97c4.68,6.26.22,15.18-7.6,15.18H21.71c-7.81,0-12.28-8.91-7.6-15.17L76.13,23.64c3.79-5.07,11.4-5.08,15.2,0Z"/>
    <path class="cls-1" d="m90.92,3.59l40.16,53.64c4.42,5.91.21,14.33-7.17,14.33H43.65c-7.38,0-11.59-8.42-7.18-14.32L76.57,3.59c3.58-4.79,10.76-4.79,14.35,0Z"/>
  </g>
</svg>