<?xml version="1.0" encoding="UTF-8"?>
<svg id="Layer_2" data-name="Layer 2" xmlns="http://www.w3.org/2000/svg" viewBox="0 0 247.46 240.93">
  <defs>
    <style>
      .cls-1 {
        fill: none;
        stroke: #b6622e;
        stroke-linecap: round;
        stroke-miterlimit: 10;
        stroke-width: 11px;
      }
    </style>
  </defs>
  <g id="Layer_1-2" data-name="Layer 1">
    <g>
      <g>
        <path class="cls-1" d="m234.09,152.99c0,40.6-39.99,73.46-89.41,73.46"/>
        <path class="cls-1" d="m135.84,234.95l-9-4.5c-3.29-1.65-3.29-6.35,0-8l9-4.5c2.97-1.49,6.47.68,6.47,4v9c0,3.32-3.5,5.48-6.47,4Z"/>
      </g>
      <g>
        <path class="cls-1" d="m159.52,14.47c40.6,0,73.46,39.99,73.46,89.41"/>
        <path class="cls-1" d="m241.48,112.73l-4.5,9c-1.65,3.29-6.35,3.29-8,0l-4.5-9c-1.49-2.97.68-6.47,4-6.47h9c3.32,0,5.48,3.5,4,6.47Z"/>
      </g>
      <g>
        <path class="cls-1" d="m13.37,87.94C13.37,47.34,53.36,14.48,102.78,14.48"/>
        <path class="cls-1" d="m111.62,5.98l9,4.5c3.29,1.65,3.29,6.35,0,8l-9,4.5c-2.97,1.49-6.47-.68-6.47-4v-9c0-3.32,3.5-5.48,6.47-4Z"/>
      </g>
      <path class="cls-1" d="m87.94,226.46c-40.6,0-73.46-39.99-73.46-89.41"/>
      <path class="cls-1" d="m5.98,128.2l4.5-9c1.65-3.29,6.35-3.29,8,0l4.5,9c1.49,2.97-.68,6.47-4,6.47h-9c-3.32,0-5.48-3.5-4-6.47Z"/>
    </g>
  </g>
</svg>