<?xml version="1.0" encoding="utf-8"?>
<!-- Generator: Adobe Illustrator 28.0.0, SVG Export Plug-In . SVG Version: 6.00 Build 0)  -->
<svg version="1.1" id="Layer_1" xmlns="http://www.w3.org/2000/svg" xmlns:xlink="http://www.w3.org/1999/xlink" x="0px" y="0px"
	 viewBox="0 0 70.1 50" style="enable-background:new 0 0 70.1 50;" xml:space="preserve">
<style type="text/css">
	.st0{fill:#07733E;}
</style>
<path class="st0" d="M6.2,0h57.7c3.4,0,6.2,2.8,6.2,6.2v0c0,3.4-2.8,6.2-6.2,6.2H6.2C2.8,12.4,0,9.6,0,6.2v0C0,2.8,2.8,0,6.2,0z"/>
<path class="st0" d="M6.2,18.8h57.7c3.4,0,6.2,2.8,6.2,6.2v0c0,3.4-2.8,6.2-6.2,6.2H6.2C2.8,31.2,0,28.4,0,25v0
	C0,21.6,2.8,18.8,6.2,18.8z"/>
<path class="st0" d="M6.2,37.6h57.7c3.4,0,6.2,2.8,6.2,6.2v0c0,3.4-2.8,6.2-6.2,6.2H6.2C2.8,50,0,47.2,0,43.8v0
	C0,40.4,2.8,37.6,6.2,37.6z"/>
</svg>
