<?xml version="1.0" encoding="UTF-8"?>
<svg id="Layer_2" data-name="Layer 2" xmlns="http://www.w3.org/2000/svg" viewBox="0 0 373.85 467.89">
  <defs>
    <style>
      .cls-1 {
        fill: #d5904a;
      }

      .cls-1, .cls-2, .cls-3 {
        stroke-width: 0px;
      }

      .cls-2 {
        fill: #8c5f32;
      }

      .cls-3 {
        fill: #e9b36d;
      }
    </style>
  </defs>
  <g id="Layer_1-2" data-name="Layer 1">
    <g>
      <polygon class="cls-3" points="357.45 128.42 337.57 122.99 276.7 36.82 276.7 .87 355.24 0 357.45 128.42"/>
      <path class="cls-3" d="m159,.4c35.22,68.16,72.08,135.46,108,203.25,27.31,51.54,52.78,104,82.5,154.25-.3,1.82.95,1.9,1,2,.15.29-.37,1.33.75,2,.77-.7-.71-1.9-.75-2-.38-.83-.5-1.16-1-2C290.68,237.09,224.36,120.14,162.5.9c12.42.07,24.52-.96,37,0,12.59,31.08,31.17,59.26,47,88.75,38.92,72.5,75.78,146.15,115,218.5,1.29,4.69,2.6,9.65,3,14.5,1.16,14.09.56,61.06.5,79.75-27.84-39.92-53.19-82.04-78.5-123.75C230.77,186.82,177.52,93.44,123,.9c11.97,0,24-.53,36-.5Z"/>
      <path class="cls-1" d="m105.5,456.89c-14.14,0-28.34.5-42.5.5-20.24-47.52-38.45-95.98-59.75-143,2.55,9.51,6.18,19.38,9.75,28.75,14.63,38.4,31.67,75.92,46.5,114.25-19.67,0-39.33,0-59,0,.02-85.5-.03-171,0-256.5,41.15,82.57,76.71,168.15,105,256Z"/>
      <path class="cls-1" d="m200,429.9c6.24,9.1,12.55,18.2,18.5,27.5-8.67,0-17.33,0-26,0-23.69-33.05-45.28-67.46-67.5-101.5-.51-1.1-.65-2.64-1.75-3.5-.59,1.54,1.6,3.27,1.75,3.5,7.47,16.25,16.55,31.74,24.5,47.75,8.74,17.61,16.57,35.72,25.5,53.25-9.3,0-18.67.5-28,.5-30.24-76.1-72.49-146.44-110.5-218.75Q18.5,208.02.5,177.4C.5,165.11,0,152.7,0,140.4c44.08,71.21,94.97,137.77,143,206.25,19.3,27.52,37.98,55.53,57,83.25Z"/>
      <path class="cls-2" d="m.5,457.39c19.67,0,39.33,0,59,0,1.17,0,2.33,0,3.5,0,14.16,0,28.36-.5,42.5-.5,13.81,0,27.67.5,41.5.5,9.33,0,18.7-.5,28-.5,5.77,0,11.67.5,17.5.5,8.67,0,17.33,0,26,0,.67,0,1.33,0,2,0,13.5-.01,27,.02,40.5,0,4.17,0,8.33,0,12.5,0,7.66-.01,15.37-.48,23-.5,9.96-.02,20,.55,30,.5,1.83,0,3.67.01,5.5,0,3.77-.03,32.33.76,33-.75.04-18.08-.05-36.17,0-54.25.06-18.68.66-65.65-.5-79.75-.4-4.85-1.7-9.81-3-14.5-39.22-72.35-76.08-145.99-115-218.5-15.83-29.48-34.41-57.66-47-88.75,2.55.2,5.19-.14,7.75,0l1.75,1.75q79.75,151.75,159.5,303.49l2.5,11v150.5q-185.12.12-370.24.25l-.25-10.5Z"/>
      <path class="cls-3" d="m147,457.39c-13.83,0-27.69-.5-41.5-.5C77.22,369.05,41.65,283.47.5,200.9c0-7.83,0-15.67,0-23.5q18,30.62,36,61.25c38.01,72.31,80.25,142.65,110.5,218.75Z"/>
      <path class="cls-1" d="m162.5.9c61.87,119.24,128.18,236.18,187,356.99-29.72-50.25-55.19-102.7-82.5-154.25C231.08,135.86,194.22,68.56,159,.4c.18,0,.5.48,3.5.5Z"/>
      <path class="cls-3" d="m275,366.4c.5.85,3.67,8.79,6,12.75,15.32,26,31.11,51.72,45.5,78.25-10,.05-20.04-.52-30-.5-38.76-72.99-77.42-146.02-118.5-217.75C134.72,170.63,90.65,102.72,49.5,32.9c.34-1.44-.9-2.03-1.5-3-.12-.27-.13-1.6-1.25-2.5-.83,1.05,1.12,2.28,1.25,2.5.67,1.49.58,1.44,1.5,3,32.08,64.77,60.67,131.16,97,193.75,12.64,21.78,26.8,42.75,39.5,64.5,31.58,54.09,59.96,110.01,87.5,166.25-4.17,0-8.33,0-12.5,0-47.94-104.2-109.43-201.48-164-302.24-18.34-34.39-32.02-70.83-47.5-106.5-6.79-15.66-15.4-30.65-20.5-47l16.75.25c71.01,103.88,135.71,212.04,200.75,319.74,9.14,15.14,19.47,29.53,28.5,44.75Z"/>
      <path class="cls-3" d="m331.99,457.39c-1.83.01-3.67,0-5.5,0-14.39-26.53-30.18-52.25-45.5-78.25-2.33-3.96-5.5-11.9-6-12.75,21.54,28.65,38.03,60.67,57,91Z"/>
      <g>
        <path class="cls-1" d="m123,.9c54.53,92.54,107.77,185.92,163.5,277.75,25.31,41.71,50.66,83.82,78.5,123.75-.05,18.08.04,36.17,0,54.25-.67,1.51-29.23.72-33,.75-18.97-30.33-35.46-62.35-57-91-9.03-15.22-19.36-29.61-28.5-44.75C181.46,213.94,116.76,105.79,45.75,1.9l-16.75-.25c5.09,16.35,13.71,31.34,20.5,47,15.48,35.67,29.16,72.11,47.5,106.5,54.57,100.76,116.05,198.05,164,302.24-13.5.02-27-.01-40.5,0-5.44-9.94-12.23-19.09-18.5-28.5C136.56,330.68,65.7,236.27.5,137.9.54,92.32.4,46.74.5,1.15c40.83-.95,81.67-.27,122.5-.25Z"/>
        <path class="cls-3" d="m202,428.9l-2,1c-19.02-27.72-37.7-55.73-57-83.25C94.97,278.17,44.08,211.61,0,140.4c0-1.38.5-1.7.5-2.5,65.2,98.36,136.06,192.78,201.5,290.99Z"/>
        <path class="cls-3" d="m194,380.4c-8.69-11.27-29.57-49.21-39.5-65.25C104.17,233.92,45.51,157.84,1,73.15l.25-49.75c22.53,46.51,43.46,93.85,68.25,139.25,26.34,48.23,57.34,93.76,84.5,141.5,7.79,13.7,36.1,65.53,40,76.25Z"/>
        <path class="cls-3" d="m220.5,457.39c-.67,0-1.33,0-2,0-5.95-9.3-12.25-18.4-18.5-27.5l2-1c6.27,9.41,13.06,18.56,18.5,28.5Z"/>
        <path class="cls-3" d="m194,380.4c.03.08,1.62.57.75,1.5-1.23.19-.56-1.26-.75-1.5Z"/>
      </g>
      <path class="cls-1" d="m350.49,359.9c-.05-.1-1.3-.18-1-2,.5.84.62,1.17,1,2Z"/>
      <path class="cls-1" d="m350.49,359.9c.04.1,1.52,1.3.75,2-1.12-.67-.6-1.71-.75-2Z"/>
      <path class="cls-3" d="m63,457.39c-1.17,0-2.33,0-3.5,0-14.83-38.33-31.86-75.85-46.5-114.25-3.57-9.36-7.2-19.24-9.75-28.75,21.3,47.02,39.5,95.48,59.75,143Z"/>
      <path class="cls-3" d="m192.5,457.39c-5.83,0-11.72-.5-17.5-.5-8.93-17.53-16.76-35.64-25.5-53.25-7.95-16.01-17.03-31.5-24.5-47.75,22.22,34.04,43.8,68.45,67.5,101.5Z"/>
      <path class="cls-3" d="m125,355.9c-.15-.23-2.34-1.96-1.75-3.5,1.1.86,1.24,2.4,1.75,3.5Z"/>
      <path class="cls-1" d="m296.49,456.89c-7.63.02-15.34.49-23,.5-27.54-56.23-55.92-112.16-87.5-166.25-12.7-21.75-26.86-42.72-39.5-64.5C110.17,164.06,81.58,97.67,49.5,32.9c41.15,69.82,85.22,137.73,128.5,206.25,41.07,71.73,79.74,144.76,118.5,217.75Z"/>
      <path class="cls-1" d="m49.5,32.9c-.92-1.56-.83-1.51-1.5-3,.6.97,1.84,1.56,1.5,3Z"/>
      <path class="cls-1" d="m48,29.9c-.13-.22-2.08-1.45-1.25-2.5,1.12.9,1.13,2.23,1.25,2.5Z"/>
      <path class="cls-1" d="m346.07.25l9.17-.25,2.37,79.98c-20.92-26.72-42.3-53.2-64.59-79.19q-5.75-.07-11.5-.14c3.5,8.95,9.41,17.15,14.08,25.72,10.63,19.52,20.02,39.47,32.62,58.29,9.93,14.62,20.53,29.09,30.87,43.55l1.3,59.84C327.43,150.53,228.83,38.88,197.06.69l64.88-.31c28.04-.52,56.08-.15,84.12-.14Z"/>
      <path class="cls-3" d="m360.52,190.3c-.4-.46-.8-.91-1.2-1.37C304.26,126.36,243.42,65.78,192.89.72l5.14-.03c52.53,63.02,107.84,123.88,162.26,185.87l.23,3.75Z"/>
      <path class="cls-3" d="m359.83,162.28C327.15,121.51,260,43.56,231.73.69l16.83-.24c15.47,25.46,43.74,63.48,60.77,88.33,15.65,22.84,33.7,44.57,50.36,66.94l.14,6.56Z"/>
      <path class="cls-2" d="m363.35,467.89c-.14-7.71-.27-15.41-.4-23.12,0-.46-.02-.91-.02-1.37-.1-5.55-.69-11.1-.79-16.65-.09-5.41.31-10.85.22-16.27-.06-3.66-.63-7.32-.69-10.96-.04-2.26.42-4.58.38-6.87-.07-3.4-.11-6.79-.18-10.19,0-.04,0-.32-.01-.8,0-.2,0-.43-.01-.7-.03-1.77-.08-4.87-.13-8-.01-.68-.02-1.36-.04-2.04-.03-1.91-.07-3.72-.1-5.12-.02-1.09-.04-2.17-.05-3.26,0-.55-.02-1.09-.03-1.64-.06-3-.59-6.02-.66-9-.09-3.9.41-7.85.3-11.76-.02-.72-.01-1.44-.04-2.16-.05-1.48-1.11-35.19-2.62-35.43l12.6,19.97q1.38,72.54,2.77,145.08l-10.5.28Z"/>
      <path class="cls-2" d="m357.63,187.02c-.13-7.68-.27-15.36-.4-23.05-.01-.61-.02-1.23-.03-1.84-.13-7.45-.76-14.9-.89-22.34-.13-7.26.25-14.56.12-21.83-.09-4.91-.67-9.83-.76-14.71-.05-3.04.4-6.15.34-9.21-.09-4.56-.15-9.11-.24-13.67,0-.05,0-.44-.02-1.07,0-.27,0-.58-.02-.94-.04-2.38-.11-6.53-.18-10.73-.02-.91-.03-1.83-.05-2.73-.05-2.56-.09-4.99-.13-6.88-.03-1.46-.05-2.91-.07-4.37-.01-.73-.03-1.47-.04-2.2-.08-4.03-.62-8.07-.71-12.09-.11-5.24.37-10.53.23-15.78-.03-.96-.02-1.93-.05-2.89-.06-1.98.41-20.17-1.11-20.49l11-.19c1.82,97.34.01,99.72,1.83,197.06l-8.83-10.04Z"/>
    </g>
  </g>
</svg>