<?xml version="1.0" encoding="UTF-8"?>
<svg id="Layer_2" data-name="Layer 2" xmlns="http://www.w3.org/2000/svg" viewBox="0 0 310.16 326.64">
  <defs>
    <style>
      .cls-1 {
        letter-spacing: 0em;
      }

      .cls-2 {
        font-size: 16.21px;
      }

      .cls-2, .cls-3, .cls-4, .cls-5, .cls-6, .cls-7, .cls-8 {
        font-family: Nunito-Black, Nunito;
        font-weight: 800;
      }

      .cls-9 {
        letter-spacing: -.02em;
      }

      .cls-10 {
        fill: none;
        stroke: #4d4d4d;
        stroke-miterlimit: 10;
        stroke-width: 5px;
      }

      .cls-3 {
        font-size: 49.59px;
      }

      .cls-3, .cls-5, .cls-6, .cls-8 {
        fill: #07733e;
      }

      .cls-11 {
        letter-spacing: -.02em;
      }

      .cls-4 {
        font-size: 12.4px;
      }

      .cls-12 {
        letter-spacing: 0em;
      }

      .cls-5 {
        font-size: 41.99px;
      }

      .cls-6 {
        font-size: 40.73px;
      }

      .cls-7 {
        font-size: 17.17px;
      }

      .cls-8 {
        font-size: 43.99px;
      }

      .cls-13 {
        letter-spacing: -.07em;
      }

      .cls-14 {
        letter-spacing: .03em;
      }

      .cls-15 {
        letter-spacing: .03em;
      }

      .cls-16 {
        letter-spacing: 0em;
      }

      .cls-17 {
        fill: #603813;
      }

      .cls-17, .cls-18, .cls-19, .cls-20, .cls-21, .cls-22, .cls-23, .cls-24, .cls-25, .cls-26, .cls-27, .cls-28, .cls-29, .cls-30, .cls-31, .cls-32 {
        stroke-width: 0px;
      }

      .cls-18 {
        fill: #7b400b;
      }

      .cls-19 {
        fill: #4d4d4d;
      }

      .cls-20 {
        fill: #88a80d;
      }

      .cls-21 {
        fill: #97622e;
      }

      .cls-22 {
        fill: #445407;
      }

      .cls-23 {
        fill: #c8802b;
      }

      .cls-24 {
        fill: #d5904a;
      }

      .cls-25 {
        fill: #b56c1d;
      }

      .cls-26 {
        fill: #8c5f32;
      }

      .cls-27 {
        fill: #b3b3b3;
      }

      .cls-28 {
        fill: #667e0a;
      }

      .cls-29 {
        fill: #97530f;
      }

      .cls-30 {
        fill: #fff2cb;
      }

      .cls-31 {
        fill: #e9b36d;
      }

      .cls-32 {
        fill: #683409;
      }

      .cls-33 {
        letter-spacing: 0em;
      }
    </style>
  </defs>
  <g id="Layer_1-2" data-name="Layer 1">
    <g>
      <rect class="cls-30" y="0" width="143.75" height="143.75" rx="12" ry="12"/>
      <text class="cls-3" transform="translate(12.36 109.11)"><tspan x="0" y="0">4000</tspan></text>
      <text class="cls-4" transform="translate(12.11 126.8)"><tspan x="0" y="0">Bomen he</tspan><tspan class="cls-1" x="59.68" y="0">r</tspan><tspan x="64.95" y="0">gebrui</tspan><tspan class="cls-11" x="103.59" y="0">k</tspan><tspan x="110.56" y="0">t</tspan></text>
      <g>
        <rect class="cls-21" x="66.54" y="51.73" width="10.65" height="15.44" rx="5.32" ry="5.32"/>
        <path class="cls-22" d="m73.82,20.14l19.92,26.24c1.23,1.62.07,3.96-1.97,3.96h-39.82c-2.04,0-3.2-2.33-1.97-3.96l19.89-26.24c.99-1.3,2.94-1.3,3.93,0Z"/>
        <path class="cls-28" d="m73.88,13.91l16.58,22.15c1.25,1.67.06,4.05-2.03,4.05h-33.14c-2.09,0-3.28-2.38-2.03-4.05l16.56-22.15c1.01-1.35,3.04-1.36,4.06,0Z"/>
        <path class="cls-20" d="m73.77,8.56l10.72,14.32c1.18,1.58.06,3.83-1.91,3.83h-21.43c-1.97,0-3.09-2.25-1.92-3.82l10.7-14.32c.96-1.28,2.87-1.28,3.83,0Z"/>
      </g>
    </g>
    <rect class="cls-30" x="166.42" y="162.89" width="143.75" height="158.89" rx="12" ry="12"/>
    <text class="cls-6" transform="translate(176.3 276.8)"><tspan x="0" y="0">700</tspan><tspan class="cls-12" x="73.31" y="0">k</tspan><tspan x="96.65" y="0">g</tspan></text>
    <text class="cls-2" transform="translate(179.86 307.47)"><tspan class="cls-9" x="0" y="0">C</tspan><tspan x="10.77" y="0">O2 Bespaa</tspan><tspan class="cls-14" x="95.1" y="0">r</tspan><tspan x="102.61" y="0">t</tspan></text>
    <rect class="cls-30" x="1.84" y="162.89" width="143.75" height="159.56" rx="12" ry="12"/>
    <text class="cls-5" transform="translate(46.68 260.99)"><tspan x="0" y="0">15</tspan></text>
    <text class="cls-7" transform="translate(16.1 284.3)"><tspan class="cls-13" x="0" y="0">V</tspan><tspan x="11.59" y="0">e</tspan><tspan class="cls-33" x="21.11" y="0">r</tspan><tspan x="28.48" y="0">schil</tspan><tspan class="cls-16" x="66.5" y="0">l</tspan><tspan x="72.39" y="0">ende </tspan><tspan class="cls-33" x="1.04" y="20.6">t</tspan><tspan x="8.27" y="20.6">oepassingen</tspan></text>
    <rect class="cls-30" x="165.51" width="143.75" height="143.75" rx="12" ry="12"/>
    <text class="cls-8" transform="translate(210.99 105.11)"><tspan x="0" y="0">20</tspan></text>
    <text class="cls-7" transform="translate(182.27 123.41)"><tspan x="0" y="0">Soo</tspan><tspan class="cls-15" x="31.84" y="0">r</tspan><tspan class="cls-33" x="39.79" y="0">t</tspan><tspan x="47.02" y="0">en hout</tspan></text>
    <g id="Layer_1-2" data-name="Layer 1-2">
      <g>
        <polygon class="cls-31" points="257.08 21.98 254.67 21.32 247.27 10.85 247.27 6.49 256.81 6.38 257.08 21.98"/>
        <path class="cls-31" d="m232.97,6.43c4.28,8.28,8.76,16.46,13.12,24.69,3.32,6.26,6.41,12.63,10.02,18.74-.04.22.12.23.12.24.02.04-.04.16.09.24.09-.09-.09-.23-.09-.24-.05-.1-.06-.14-.12-.24-7.15-14.68-15.2-28.88-22.72-43.37,1.51,0,2.98-.12,4.49,0,1.53,3.78,3.79,7.2,5.71,10.78,4.73,8.81,9.21,17.75,13.97,26.54.16.57.32,1.17.36,1.76.14,1.71.07,7.42.06,9.69-3.38-4.85-6.46-9.97-9.54-15.03-6.77-11.16-13.24-22.5-19.86-33.74,1.45,0,2.92-.06,4.37-.06Z"/>
        <path class="cls-24" d="m226.47,61.88c-1.72,0-3.44.06-5.16.06-2.46-5.77-4.67-11.66-7.26-17.37.31,1.16.75,2.35,1.18,3.49,1.78,4.66,3.85,9.22,5.65,13.88h-7.17c0-10.39,0-20.77,0-31.16,5,10.03,9.32,20.43,12.76,31.1Z"/>
        <path class="cls-24" d="m237.95,58.61c.76,1.11,1.52,2.21,2.25,3.34h-3.16c-2.88-4.01-5.5-8.19-8.2-12.33-.06-.13-.08-.32-.21-.43-.07.19.19.4.21.43.91,1.97,2.01,3.86,2.98,5.8,1.06,2.14,2.01,4.34,3.1,6.47-1.13,0-2.27.06-3.4.06-3.67-9.24-8.81-17.79-13.42-26.57-1.46-2.48-2.92-4.96-4.37-7.44,0-1.49-.06-3-.06-4.49,5.35,8.65,11.54,16.74,17.37,25.05,2.34,3.34,4.61,6.75,6.92,10.11Z"/>
        <path class="cls-26" d="m213.72,61.94h7.59c1.72,0,3.45-.06,5.16-.06s3.36.06,5.04.06c1.13,0,2.27-.06,3.4-.06.7,0,1.42.06,2.13.06h3.4c1.64,0,3.28,0,4.92,0h1.52c.93,0,1.87-.06,2.79-.06,1.21,0,2.43.07,3.64.06.22,0,.45,0,.67,0,.46,0,3.93.09,4.01-.09,0-2.2,0-4.39,0-6.59,0-2.27.08-7.98-.06-9.69-.05-.59-.21-1.19-.36-1.76-4.76-8.79-9.24-17.73-13.97-26.54-1.92-3.58-4.18-7-5.71-10.78.31.02.63-.02.94,0l.21.21c6.46,12.29,12.92,24.58,19.38,36.87l.3,1.34v18.28c-14.99,0-29.98.02-44.98.03l-.03-1.28h0Z"/>
        <path class="cls-31" d="m231.51,61.94c-1.68,0-3.36-.06-5.04-.06-3.44-10.67-7.76-21.07-12.76-31.1v-2.85c1.46,2.48,2.92,4.96,4.37,7.44,4.62,8.78,9.75,17.33,13.42,26.57h0Z"/>
        <path class="cls-24" d="m233.4,6.49c7.52,14.49,15.57,28.69,22.72,43.37-3.61-6.1-6.7-12.48-10.02-18.74-4.36-8.23-8.84-16.41-13.12-24.69.02,0,.06.06.43.06Z"/>
        <path class="cls-31" d="m247.06,50.89c.06.1.45,1.07.73,1.55,1.86,3.16,3.78,6.28,5.53,9.51-1.21,0-2.43-.06-3.64-.06-4.71-8.87-9.4-17.74-14.4-26.45-5.26-8.32-10.61-16.57-15.61-25.05.04-.17-.11-.25-.18-.36-.01-.03-.02-.19-.15-.3-.1.13.14.28.15.3.08.18.07.17.18.36,3.9,7.87,7.37,15.93,11.78,23.54,1.54,2.65,3.26,5.19,4.8,7.84,3.84,6.57,7.28,13.36,10.63,20.2h-1.52c-5.82-12.66-13.29-24.48-19.92-36.72-2.23-4.18-3.89-8.6-5.77-12.94-.82-1.9-1.87-3.72-2.49-5.71l2.03.03c8.63,12.62,16.49,25.76,24.39,38.84,1.11,1.84,2.37,3.59,3.46,5.44Z"/>
        <path class="cls-31" d="m253.99,61.94c-.22,0-.45,0-.67,0-1.75-3.22-3.67-6.35-5.53-9.51-.28-.48-.67-1.45-.73-1.55,2.62,3.48,4.62,7.37,6.92,11.05Z"/>
        <g>
          <path class="cls-24" d="m228.6,6.49c6.62,11.24,13.09,22.59,19.86,33.74,3.07,5.07,6.15,10.18,9.54,15.03,0,2.2,0,4.39,0,6.59-.08.18-3.55.09-4.01.09-2.3-3.68-4.31-7.57-6.92-11.05-1.1-1.85-2.35-3.6-3.46-5.44-7.9-13.08-15.76-26.22-24.39-38.84l-2.03-.03c.62,1.99,1.67,3.81,2.49,5.71,1.88,4.33,3.54,8.76,5.77,12.94,6.63,12.24,14.1,24.06,19.92,36.72-1.64,0-3.28,0-4.92,0-.66-1.21-1.49-2.32-2.25-3.46-7.95-11.93-16.56-23.4-24.48-35.35,0-5.54-.01-11.07,0-16.61,4.96-.12,9.92-.03,14.88-.03Z"/>
          <path class="cls-31" d="m238.2,58.48l-.24.12c-2.31-3.37-4.58-6.77-6.92-10.11-5.83-8.32-12.02-16.4-17.37-25.05,0-.17.06-.21.06-.3,7.92,11.95,16.53,23.42,24.48,35.35h0Z"/>
          <path class="cls-31" d="m237.22,52.59c-1.06-1.37-3.59-5.98-4.8-7.93-6.11-9.87-13.24-19.11-18.65-29.4l.03-6.04c2.74,5.65,5.28,11.4,8.29,16.92,3.2,5.86,6.97,11.39,10.26,17.19.95,1.66,4.39,7.96,4.86,9.26Z"/>
          <path class="cls-31" d="m240.44,61.94h-.24c-.72-1.13-1.49-2.24-2.25-3.34l.24-.12c.76,1.14,1.59,2.25,2.25,3.46Z"/>
          <path class="cls-31" d="m237.22,52.59s.2.07.09.18c-.15.02-.07-.15-.09-.18Z"/>
        </g>
        <path class="cls-24" d="m256.23,50.1s-.16-.02-.12-.24c.06.1.08.14.12.24Z"/>
        <path class="cls-24" d="m256.23,50.1s.18.16.09.24c-.14-.08-.07-.21-.09-.24Z"/>
        <path class="cls-31" d="m221.31,61.94h-.43c-1.8-4.66-3.87-9.21-5.65-13.88-.43-1.14-.87-2.34-1.18-3.49,2.59,5.71,4.8,11.6,7.26,17.37Z"/>
        <path class="cls-31" d="m237.04,61.94c-.71,0-1.42-.06-2.13-.06-1.08-2.13-2.04-4.33-3.1-6.47-.97-1.94-2.07-3.83-2.98-5.8,2.7,4.14,5.32,8.32,8.2,12.33Z"/>
        <path class="cls-31" d="m228.84,49.62s-.28-.24-.21-.43c.13.1.15.29.21.43Z"/>
        <path class="cls-24" d="m249.67,61.88c-.93,0-1.86.06-2.79.06-3.35-6.83-6.79-13.63-10.63-20.2-1.54-2.64-3.26-5.19-4.8-7.84-4.41-7.6-7.89-15.67-11.78-23.54,5,8.48,10.35,16.73,15.61,25.05,4.99,8.71,9.69,17.59,14.4,26.45h0Z"/>
        <path class="cls-24" d="m219.67,10.38c-.11-.19-.1-.18-.18-.36.07.12.22.19.18.36Z"/>
        <path class="cls-24" d="m219.49,10.01s-.25-.18-.15-.3c.14.11.14.27.15.3Z"/>
        <path class="cls-24" d="m255.7,6.41l1.11-.03.29,9.72c-2.54-3.25-5.14-6.46-7.85-9.62-.47,0-.93-.01-1.4-.02.43,1.09,1.14,2.08,1.71,3.12,1.29,2.37,2.43,4.79,3.96,7.08,1.21,1.78,2.49,3.53,3.75,5.29l.16,7.27c-4-4.56-15.98-18.12-19.84-22.76l7.88-.04c3.41-.06,6.81-.02,10.22-.02h0Z"/>
        <path class="cls-31" d="m257.45,29.5c-.05-.06-.1-.11-.15-.17-6.69-7.6-14.08-14.96-20.22-22.86h.62c6.38,7.65,13.1,15.05,19.71,22.58l.03.46h0Z"/>
        <path class="cls-31" d="m257.37,26.1c-3.97-4.95-12.13-14.42-15.56-19.63l2.04-.03c1.88,3.09,5.31,7.71,7.38,10.73,1.9,2.77,4.09,5.41,6.12,8.13l.02.8h0Z"/>
        <path class="cls-26" d="m257.8,63.22c-.02-.94-.03-1.87-.05-2.81,0-.06,0-.11,0-.17-.01-.67-.08-1.35-.1-2.02-.01-.66.04-1.32.03-1.98,0-.44-.08-.89-.08-1.33,0-.27.05-.56.05-.83,0-.41-.01-.82-.02-1.24,0,0,0-.04,0-.1,0-.02,0-.05,0-.09,0-.22,0-.59-.02-.97,0-.08,0-.17,0-.25,0-.23,0-.45-.01-.62,0-.13,0-.26,0-.4,0-.07,0-.13,0-.2,0-.36-.07-.73-.08-1.09-.01-.47.05-.95.04-1.43,0-.09,0-.17,0-.26,0-.18-.13-4.27-.32-4.3l1.53,2.43c.11,5.87.22,11.75.34,17.62l-1.28.03h0Z"/>
        <path class="cls-26" d="m257.1,29.1c-.02-.93-.03-1.87-.05-2.8,0-.07,0-.15,0-.22-.02-.91-.09-1.81-.11-2.71-.02-.88.03-1.77.01-2.65-.01-.6-.08-1.19-.09-1.79,0-.37.05-.75.04-1.12-.01-.55-.02-1.11-.03-1.66,0,0,0-.05,0-.13,0-.03,0-.07,0-.11,0-.29-.01-.79-.02-1.3,0-.11,0-.22,0-.33,0-.31-.01-.61-.02-.84,0-.18,0-.35,0-.53,0-.09,0-.18,0-.27,0-.49-.08-.98-.09-1.47-.01-.64.04-1.28.03-1.92,0-.12,0-.23,0-.35,0-.24.05-2.45-.13-2.49l1.34-.02c.22,11.82,0,12.11.22,23.94l-1.07-1.22h0Z"/>
      </g>
    </g>
    <g id="Layer_1-2-2" data-name="Layer 1-2">
      <path class="cls-23" d="m85.22,182.19v.08c.35.88,1.41,2.79,1.97,3.42.84.96,1.19.79,1.65,1.38.05.23.19.44.32.63,1.83,2.92,3.7,8.73,6.93,8.19,1.4,1.56,2.85,3.06,4.17,4.68-1.57.01-3.15.1-4.72.12-2.23.03-4.47-.09-6.69.08,0,0-.15-.07-.16-.08-.08-.1-.16-.21-.24-.32-3.43-4.61-6.36-12.64-8.03-18.19,1.6,0,3.2,0,4.8,0h0Z"/>
      <path class="cls-23" d="m88.29,182.19c1.17,1.82,2.48,3.55,3.78,5.28,2.17,2.87,2.77,4.15,6.02,6.46-2.56-3.79-5.49-7.59-7.68-11.73,1.38.02,2.76-.01,4.13,0,.18.16.28.38.43.55-.2.22,1,1.85,1.42,2.4,1.1,1.46,2.37,2.62,2.83,3.19,3.13,3.87,6.04,7.97,8.9,12.05v.32c-1.79.03-3.57.05-5.35.08-2.68.04.03-.03-.08-.08-1.38-1.5-2.76-2.99-4.13-4.49-5.57-3.04-8.13-9.18-11.85-14.01.52,0,1.05,0,1.57,0Z"/>
      <path class="cls-23" d="m59.95,182.19c-1.68,2.05-3.16,4.31-4.96,6.26-3.16,3.42-9.68,8.11-13.19,12.24h-2.4l.08-.35c4.58-6.11,8.83-12.48,13.98-18.15,2.17-.01,4.33.01,6.5,0h0Z"/>
      <path class="cls-23" d="m69.4,182.19c-1.33,5.68-1.87,14.72-6.3,18.5h-3.15c4.01-6.09,6.67-10.96,7.76-18.35-2.64,8.12-4.09,11.5-9.17,18.42h-.08c-1.42-.01-2.91-.06-4.33-.2,1.33-1.74,3.21-3.52,4.49-5.2,1.13-1.48,1.98-3.19,3.15-4.64,2.23-2.78,3.7-2.85,4.96-8.54.89,0,1.78,0,2.68,0Z"/>
      <path class="cls-23" d="m79.08,182.19c.34,1.63.88,3.2,1.34,4.8.76,2.66,1.47,5.35,2.28,7.99.59,1.9,1.43,3.8,1.85,5.71-.41.01-.81-.02-1.22,0-.53.02-.6.08-.63.08-1.16.02-2.34-.24-3.5,0-2.58-5.83-3.33-12.27-3.66-18.58,1.18,0,2.36,0,3.54,0Z"/>
      <path class="cls-23" d="m72.39,182.19c-.12,2.73-.39,5.46-.47,8.19-.08,2.62-.24,5.26.39,7.83.06.95-.05,1.59-.16,2.48-1.6,0-3.2-.01-4.8,0h-.08c.17-6.26,2.08-12.3,2.83-18.5.76,0,1.52,0,2.28,0h0Z"/>
      <path class="cls-23" d="m65.78,182.19c-2.58,6.48-2.76,5.47-5.91,8.94-2.88,3.17-5.63,6.46-8.58,9.57l-.16.08c-1.18-.07-2.36-.13-3.54-.2,4.49-4.13,8.26-8.96,12.83-12.99l3.15-5.39c.73,0,1.47,0,2.2,0Z"/>
      <path class="cls-23" d="m62.39,182.19c-1.09,1.63-2.19,3.24-3.07,5-4.31,4.57-8.46,9.28-13.07,13.58-.12,0-.18,0-.24,0-.21,0-1.87-.08-1.89-.2,5.76-6.13,11.8-11.97,17.24-18.38.34,0,.68,0,1.02,0h0Z"/>
      <path class="cls-29" d="m61.37,182.19c-5.45,6.41-11.49,12.26-17.24,18.38.02.12,1.68.19,1.89.2l-2.17,3.07c-.7-.01-1.39-.03-2.09-.04.26-.48,2.07-2.67,2.13-2.83.04-.12.11-.18-.04-.28-.11-.04-1.91,0-2.05.08-.29.15-2.11,3.18-2.28,3.07-.1-.07.07-.36-.2-.32-.06-.56-.03-2.29.08-2.83h2.4c3.51-4.13,10.03-8.82,13.19-12.24,1.8-1.95,3.28-4.21,4.96-6.26.47,0,.94,0,1.42,0h0Z"/>
      <path class="cls-29" d="m63.57,182.19l-3.15,5.39c-4.57,4.03-8.34,8.86-12.83,12.99,1.18.07,2.36.13,3.54.2l-2.52,3.23c-1.2.04-2.42,0-3.62,0,.81-1.06,1.63-2.13,2.44-3.19-.04-.27-.99-.03-1.18-.04,4.6-4.3,8.76-9.01,13.07-13.58.88-1.76,1.98-3.37,3.07-5,.39,0,.79,0,1.18,0h0Z"/>
      <path class="cls-23" d="m74.04,182.19c-.06,2.83.07,5.65.39,8.46,1.06,3.29,1.94,6.62,2.68,10l-1.34.12c-.04-.11-.08-.07-.08-.08-.07-.17-.09-.38-.16-.55-.4-1.05-.97-2.29-1.26-3.35-1.31-4.74-.98-9.74-1.02-14.61h.79,0Z"/>
      <path class="cls-29" d="m80.42,182.19c1.67,5.54,4.6,13.57,8.03,18.19.07.36-1.12.35-1.42.04-.48-.49-4.72-9.56-5.28-10.87-.49-1.17-.63-2.64-1.34-2.56-.46-1.6-1-3.17-1.34-4.8h1.34,0Z"/>
      <path class="cls-18" d="m46.01,200.77c.05,0,.12,0,.24,0,.19,0,1.14-.23,1.18.04-.81,1.06-1.63,2.13-2.44,3.19-.37,0-.73,0-1.1,0-1.51-.01-3.02,0-4.53,0-.08-.06-.03-.36-.04-.47.27-.04.09.25.2.32.18.11,1.99-2.92,2.28-3.07.14-.07,1.93-.12,2.05-.08.15.09.08.16.04.28-.06.17-1.87,2.36-2.13,2.83.7.01,1.39.03,2.09.04l2.17-3.07h0Z"/>
      <g>
        <path class="cls-29" d="m100.42,200.66c.07-.09,2-.07,2.28.04-1.38-1.5-2.76-2.99-4.13-4.49-5.57-3.04-8.13-9.18-11.85-14.02-.5,0-1,0-1.5,0v.08c.24.03.64-.04.75,0,.25.09,3.01,4.18,3.03,4.45.02.28-.19.13-.16.35.05.23.19.44.32.63.18-.03.36-.16.55-.04.17.11.85,1.75,2.13,3.46,1.26,1.7,2.84,3.19,4.25,4.76,1.4,1.56,2.85,3.06,4.17,4.68-1.57.01-3.15.1-4.72.12,1.21,1.57,1.26,1.63,2.38,3.08.33,0,.63.07.9.25,1.12-.12,4.48-.02,4.99-.03-1.13-1.12-2.26-2.23-3.39-3.35h0Z"/>
        <path class="cls-17" d="m97.91,203.78c.05.06.09.12.14.19-.64.15-4.48-.07-4.68.04-.08.04-.03.23-.04.32.17.29.42,1.74.47,2.17.32,3.46.3,11.61.71,14.25.19,1.26-.19,4.52.27,5.69l3.68-.05-.16-3.39c.11-6.28.05-12.57.16-18.86.02-.04.15-.07.36-.09-.27-.19-.57-.26-.9-.25h0Z"/>
      </g>
      <g>
        <path class="cls-29" d="m90.42,182.19c2.19,4.14,5.11,7.94,7.68,11.73-3.25-2.3-3.85-3.58-6.02-6.46l.32-.12c-.76-1.78-1.93-3.36-2.6-5.16.21,0,.42,0,.63,0Z"/>
        <path class="cls-25" d="m89.79,182.19c.67,1.8,1.84,3.38,2.6,5.16l-.32.12c-1.3-1.72-2.61-3.46-3.78-5.28.5,0,1,0,1.5,0Z"/>
      </g>
      <path class="cls-25" d="m99.24,188.33c-.46-.57-1.73-1.73-2.83-3.19-.42-.55-1.62-2.18-1.42-2.4,1.09,1.21,3.16,4.12,4.25,5.59h0Z"/>
      <path class="cls-29" d="m95.54,200.69c.84,1.09,1.68,2.18,2.52,3.27-.64.15-4.48-.07-4.68.04-.08.04-.03.23-.04.32-.03-.05-.24-.3-.28-.32-.49-.01-.97.01-1.46,0-.92-1.08-1.88-2.11-2.76-3.23,2.23-.17,4.46-.05,6.69-.08h0Z"/>
      <g>
        <path class="cls-29" d="m70.11,182.19c-.75,6.2-2.66,12.24-2.83,18.5-1.39.01-2.78.08-4.17.08v-.08c4.43-3.78,4.97-12.82,6.3-18.5h.71,0Z"/>
        <path class="cls-18" d="m67.27,200.69h.08v3.31c-2,0-3.99,0-5.98,0l1.73-3.23c1.39,0,2.78-.07,4.17-.08h0Z"/>
      </g>
      <path class="cls-29" d="m72.15,200.69c-.13,1.11-.39,2.21-.63,3.31-1.39,0-2.78,0-4.17,0v-3.31c1.6-.01,3.2,0,4.8,0h0Z"/>
      <path class="cls-29" d="m63.1,200.69v.08l-1.73,3.23c-1.21,0-2.41-.01-3.62,0,.68-1.1,1.42-2.15,2.13-3.23.06-.09.08-.07.08-.08h3.15Z"/>
      <g>
        <path class="cls-29" d="m75.54,182.19c.33,6.31,1.09,12.76,3.66,18.58,1.16-.24,2.35.02,3.5,0,.26.35.74,2.93.87,3.03.06.05.47.06.51.04.14-.08-.88-2.76-.75-3.15.41-.02.81.01,1.22,0-.42-1.91-1.26-3.81-1.85-5.71-.82-2.64-1.52-5.33-2.28-7.99.71-.08.85,1.39,1.34,2.56.55,1.31,4.8,10.38,5.28,10.87.3.31,1.49.32,1.42-.04.08.1.16.21.24.32-.62-.07-1.27.08-1.34.08-.57,0-1.15-.11-1.73-.08-.4.02-.8-.08-.94.12.34,1.06.68,2.13,1.02,3.19-1.68,0-3.36,0-5.04,0l-1.34-3.11c-.22-.26-2.13-.28-2.2-.08.29,1.06.58,2.13.87,3.19h-.94c-.38-1.09-.84-2.15-1.26-3.23l1.34-.12c-.74-3.38-1.62-6.71-2.68-10-.32-2.81-.45-5.63-.39-8.46h1.5Z"/>
        <path class="cls-18" d="m80.66,204c-.89,0-1.78,0-2.68,0-.29-1.06-.58-2.13-.87-3.19.07-.21,1.98-.18,2.2.08l1.34,3.11h0Z"/>
      </g>
      <path class="cls-18" d="m87.35,200.77c.58,1.08,1.16,2.15,1.73,3.23-.76,0-1.52,0-2.28,0l-1.18-3.31c.58-.03,1.16.08,1.73.08h0Z"/>
      <path class="cls-32" d="m88.69,200.69s.15.07.16.08c.88,1.12,1.83,2.15,2.76,3.23-.84-.03-1.68,0-2.52,0-.58-1.08-1.16-2.15-1.73-3.23.07,0,.72-.15,1.34-.08h0Z"/>
      <path class="cls-18" d="m59.87,200.77c-.71,1.08-1.45,2.13-2.13,3.23-.42,0-.84,0-1.26,0l1.97-3.23h.08c.3,0,.9-.22,1.34,0Z"/>
      <path class="cls-18" d="m85.62,200.69l1.18,3.31c-.37,0-.73,0-1.1,0-.34-1.06-.68-2.13-1.02-3.19.14-.2.54-.1.94-.12h0Z"/>
      <path class="cls-29" d="m108.14,200.69v3.27c-.81.08-1.63.03-2.44.04-.46-.52-2.71-3.1-2.91-3.23,1.79-.03,3.57-.05,5.35-.08h0Z"/>
      <path class="cls-32" d="m102.7,200.69c.11.04.07.08.08.08.21.12,2.45,2.71,2.91,3.23-.63,0-1.26,0-1.89,0-1.13-1.12-2.26-2.23-3.39-3.35.07-.09,2-.07,2.28.04h0Z"/>
      <path class="cls-29" d="m96.09,195.89c-3.23.55-5.1-5.27-6.93-8.19.18-.03.36-.16.55-.04.17.11.85,1.75,2.13,3.46,1.26,1.7,2.84,3.19,4.25,4.76h0Z"/>
      <path class="cls-29" d="m88.85,187.07c-.47-.59-.82-.41-1.65-1.38-.56-.64-1.62-2.55-1.97-3.42.24.03.64-.04.75,0,.25.09,3.01,4.18,3.03,4.45.02.28-.19.13-.16.35h0Z"/>
      <g>
        <path class="cls-29" d="m65.78,182.19c-2.58,6.48-2.76,5.47-5.91,8.94-2.88,3.17-5.63,6.46-8.58,9.57l2.6.04c-.43.62-1.93,2.66-2.36,2.95.14.46.82.12,1.16.26.45,0,.93.14,1.36.19h0c.09-.21,2.09-.12,2.44-.13.66-1.08,1.31-2.15,1.97-3.23-1.42-.01-2.91-.06-4.33-.2,1.33-1.74,3.21-3.52,4.49-5.2,1.13-1.48,1.98-3.19,3.15-4.64,2.23-2.78,3.7-2.85,4.96-8.54h-.94Z"/>
        <path class="cls-17" d="m52.86,204.2c.02.16-.51,2.11-.63,3.23-.22,2.06-.13,4.15-.39,6.22-.18,1.45-.55,3.45-1.02,4.8-.03.08,0,.19.08.24-.23.36-.76-1.97-.94-2.13-.23-1.61-.26-5.13-.63-3.35.03.97.05,1.94.08,2.91.1,3.95.28,7.9.24,11.85.08.2.49.26.67.2.4-.14,2.56-.18,2.56-.18.24-8.09.94-15.77,1.18-23.86-.43-.05-.92-.18-1.36-.19.09.04.16.11.18.25h0Z"/>
        <path class="cls-17" d="m49.32,213.21c-.08-3.07-.08-6.14-.24-9.21.75-.03,1.49-.14,2.24-.08.05-.15.08-.16.2-.24.18.59,1.25-.13,1.34.51.02.16-.51,2.11-.63,3.23-.22,2.06-.13,4.15-.39,6.22-.18,1.45-.55,3.45-1.02,4.8-.03.08,0,.18.08.24-.23.36-.76-1.97-.94-2.13-.23-1.61-.26-5.13-.63-3.35h0Z"/>
      </g>
      <path class="cls-18" d="m51.29,200.69l2.6.04c-.43.62-1.93,2.66-2.36,2.95-.12.08-.15.09-.2.24-.75-.06-1.5.05-2.24.08-.16,0-.32,0-.47,0l2.52-3.23s.16-.08.16-.08Z"/>
      <path class="cls-29" d="m59.95,200.69s-.02-.01-.08.08c-.44-.22-1.04,0-1.34,0,5.08-6.93,6.53-10.3,9.17-18.42-1.09,7.38-3.74,12.25-7.76,18.35Z"/>
      <path class="cls-29" d="m83.33,200.69c-.13.39.89,3.07.75,3.15-.05.03-.45.01-.51-.04-.12-.1-.61-2.68-.87-3.03.03,0,.1-.06.63-.08Z"/>
      <g>
        <path class="cls-29" d="m73.26,182.19c.05,4.86-.29,9.86,1.02,14.61.29,1.06.86,2.3,1.26,3.35.14.67-1.1.49-1.18.43-.07-.05-.4-1.43-.47-1.65-.02-.07-.14-.01-.16-.08-.03-.1.11-.13.08-.24-.58-1.88-1.06-3.79-1.26-5.75-.14-1.44.42-2.47-.63-2.48.08-2.73.35-5.46.47-8.19h.87Z"/>
        <path class="cls-18" d="m74.44,200.77c.26,1.05.65,2.2.71,3.23-.89,0-1.78,0-2.68,0,.24-1.1.47-2.2.71-3.31.42,0,.86.08,1.26.08h0Z"/>
        <path class="cls-32" d="m75.7,200.69s.04-.03.08.08c.42,1.08.88,2.14,1.26,3.23h-1.89c-.06-1.03-.45-2.17-.71-3.23.06,0,.68-.15,1.26-.08h0Z"/>
        <path class="cls-32" d="m73.18,200.69c-.24,1.1-.47,2.2-.71,3.31h-.94c.24-1.09.5-2.19.63-3.31h1.02Z"/>
        <path class="cls-29" d="m75.54,200.14c.07.17.09.38.16.55-.57-.07-1.2.08-1.26.08-.4,0-.84-.08-1.26-.08h-1.02c.1-.89.22-1.53.16-2.48-.63-2.58-.47-5.21-.39-7.83,1.05.01.49,1.04.63,2.48.19,1.96.68,3.87,1.26,5.75.03.1-.11.13-.08.24.02.07.14.01.16.08.07.23.41,1.6.47,1.65.08.06,1.32.24,1.18-.43h0Z"/>
      </g>
    </g>
    <g id="Layer_1-2-3" data-name="Layer 1-2">
      <g>
        <g>
          <path class="cls-19" d="m221.98,221.72c9.59,0,19.22.41,28.72.41,6.04,0,27.16-3.39,20.29-12.96-3.82-5.33-9.02-5.71-14.89-6.16,6.8-4.41,9.51-10.35,1.71-16.52-2.94-2.32-15.3-4.98-15.66,1.51-1.84-2.79-2.38-5.69-5.92-6.89-3.02-1.02-6.6.25-9.4,1.43-3.39,1.43-4.66,2.24-4.04,6.39.39,2.59,1.66,5.57,4.77,3.44-7.58-7.6-22.44,10.32-12.33,14.79-5.01.49-13.41,6.61-8.55,12.13,3.38,3.84,10.82,2.25,15.3,2.42"/>
          <path class="cls-27" d="m220.99,219.99c9.59,0,19.22.41,28.72.41,6.04,0,27.16-3.39,20.29-12.96-3.82-5.33-9.02-5.71-14.89-6.16,6.8-4.41,9.51-10.35,1.71-16.52-2.94-2.32-15.3-4.98-15.66,1.51-1.84-2.79-2.38-5.69-5.92-6.89-3.02-1.02-6.6.25-9.4,1.43-3.39,1.43-4.66,2.24-4.04,6.39.39,2.59,1.66,5.57,4.77,3.44-7.58-7.6-22.44,10.32-12.33,14.79-5.01.49-13.41,6.61-8.55,12.13,3.38,3.84,10.82,2.25,15.3,2.42"/>
        </g>
        <g>
          <line class="cls-10" x1="210.62" y1="226.25" x2="213.15" y2="229.62"/>
          <line class="cls-10" x1="216.81" y1="226.25" x2="219.33" y2="229.62"/>
          <line class="cls-10" x1="222.05" y1="226.25" x2="224.58" y2="229.62"/>
          <line class="cls-10" x1="228.24" y1="226.25" x2="230.77" y2="229.62"/>
          <line class="cls-10" x1="234.17" y1="226.25" x2="236.69" y2="229.62"/>
          <line class="cls-10" x1="240.35" y1="226.25" x2="242.88" y2="229.62"/>
          <line class="cls-10" x1="245.6" y1="226.25" x2="248.13" y2="229.62"/>
          <line class="cls-10" x1="251.79" y1="226.25" x2="254.31" y2="229.62"/>
          <line class="cls-10" x1="257.24" y1="226.25" x2="259.77" y2="229.62"/>
          <line class="cls-10" x1="263.43" y1="226.25" x2="265.96" y2="229.62"/>
        </g>
      </g>
    </g>
  </g>
</svg>