<svg xmlns="http://www.w3.org/2000/svg" viewBox="0 0 96 120" x="0px" y="0px"><g data-name="1"><path d="M71.81,77.34a26.7,26.7,0,0,1-9.88,8.43A21.27,21.27,0,0,0,67,77c3.73-12.07-.3-30.2-13.34-38.45a2.8,2.8,0,0,0-4.18,3.18c2.15,7.14.91,14.54-1.15,18.39a7.27,7.27,0,0,1-7.08,3.59c-2.84-.19-5.19-1.72-6-3.87A2.84,2.84,0,0,0,33,58.05a2.76,2.76,0,0,0-2.61,1.1c-4.12,5.59-4.79,14.05-1.64,20.56a18.3,18.3,0,0,0,3,4.48A24.87,24.87,0,0,1,27.91,81c-6.55-6.66-9.49-16.93-7.65-26.8,1.06-5.69,4.12-10.86,6.59-15,1.8-3,3.51-5.92,3.51-7.61a2.52,2.52,0,0,1,1.34-2.21,2.58,2.58,0,0,1,2.64.12,13.84,13.84,0,0,1,2.09,1.71c0-7.45,2-17.52,12.3-22.83a2.83,2.83,0,0,1,3,.23,2.74,2.74,0,0,1,1.08,2.71c-.56,3,3.16,7.62,7.46,13C66.79,32.4,74.9,42.48,76,55.39h0C76.61,62.41,76.59,70.52,71.81,77.34ZM41,66.75a9.71,9.71,0,0,1-8.47-5.5,17.7,17.7,0,0,0-1.13,17.16c2.82,5.83,8.81,9.2,16.87,9.49,10.48.4,14.4-7.2,15.81-11.75,3.38-10.91-.51-27.33-11.63-34.74,2.19,7.81.77,15.89-1.52,20.17A10.22,10.22,0,0,1,41,66.75Z"/></g><text x="0" y="111" fill="#000000" font-size="5px" font-weight="bold" font-family="'Helvetica Neue', Helvetica, Arial-Unicode, Arial, Sans-serif">Created by Verra Prania</text><text x="0" y="116" fill="#000000" font-size="5px" font-weight="bold" font-family="'Helvetica Neue', Helvetica, Arial-Unicode, Arial, Sans-serif">from the Noun Project</text></svg>