<svg xmlns="http://www.w3.org/2000/svg" xmlns:xlink="http://www.w3.org/1999/xlink" xml:space="preserve" version="1.1" style="shape-rendering:geometricPrecision;text-rendering:geometricPrecision;image-rendering:optimizeQuality;" viewBox="0 0 455 540" x="0px" y="0px" fill-rule="evenodd" clip-rule="evenodd"><defs><style type="text/css">
   
    .fil0 {fill:black}
    .fil1 {fill:black;fill-rule:nonzero}
   
  </style></defs><g><path class="fil0" d="M42 26l37 0 0 -22c0,-2 2,-4 4,-4l17 0c2,0 4,2 4,4l0 22 161 0 0 -22c0,-2 2,-4 4,-4l17 0c2,0 4,2 4,4l0 22 37 0c23,0 42,20 42,43l0 137 -26 0 0 -69c0,-9 -7,-17 -16,-17l-285 0c-9,0 -17,8 -17,17l0 232c0,9 8,17 17,17l199 0 0 25 -199 0c-23,0 -42,-19 -42,-42l0 -300c0,-23 19,-43 42,-43z"/><path class="fil0" d="M82 165l32 0c5,0 9,4 9,10l0 31c0,5 -4,9 -9,9l-32 0c-5,0 -9,-4 -9,-9l0 -31c0,-6 4,-10 9,-10z"/><path class="fil1" d="M355 231c55,0 100,45 100,101 0,55 -45,100 -100,100 -55,0 -100,-45 -100,-100 0,-56 45,-101 100,-101zm0 26c-41,0 -75,33 -75,75 0,41 34,75 75,75 42,0 75,-34 75,-75 0,-42 -33,-75 -75,-75z"/><path class="fil1" d="M344 290c0,-6 5,-11 11,-11 7,0 12,5 12,11l-1 37 18 17c4,4 4,11 0,16 -5,4 -12,4 -16,0l-20 -20c-3,-2 -4,-5 -4,-8l0 -42z"/></g><text x="0" y="447" fill="#000000" font-size="5px" font-weight="bold" font-family="'Helvetica Neue', Helvetica, Arial-Unicode, Arial, Sans-serif">Created by Aquene Ardeen</text><text x="0" y="452" fill="#000000" font-size="5px" font-weight="bold" font-family="'Helvetica Neue', Helvetica, Arial-Unicode, Arial, Sans-serif">from the Noun Project</text></svg>