<?xml version="1.0" encoding="UTF-8"?>
<svg id="Layer_2" data-name="Layer 2" xmlns="http://www.w3.org/2000/svg" viewBox="0 0 172.02 114.95">
  <defs>
    <style>
      .cls-1 {
        fill: #603813;
      }

      .cls-1, .cls-2, .cls-3, .cls-4, .cls-5, .cls-6 {
        stroke-width: 0px;
      }

      .cls-2 {
        fill: #7b400b;
      }

      .cls-3 {
        fill: #c8802b;
      }

      .cls-4 {
        fill: #b56c1d;
      }

      .cls-5 {
        fill: #97530f;
      }

      .cls-6 {
        fill: #683409;
      }
    </style>
  </defs>
  <g id="Layer_1-2" data-name="Layer 1">
    <g>
      <path class="cls-3" d="m114.78,0v.2c.87,2.19,3.53,6.96,4.92,8.56,2.09,2.41,2.97,1.98,4.13,3.44.12.57.48,1.09.79,1.57,4.57,7.29,9.24,21.82,17.31,20.46,3.49,3.89,7.11,7.66,10.43,11.71-3.93.02-7.87.24-11.8.3-5.57.08-11.16-.22-16.72.2-.01-.02-.38-.18-.39-.2-.2-.26-.4-.53-.59-.79C114.27,33.92,106.94,13.86,102.77,0c4,0,8-.01,12,0Z"/>
      <path class="cls-3" d="m122.45,0c2.92,4.54,6.19,8.87,9.44,13.18,5.42,7.18,6.92,10.38,15.05,16.13C140.53,19.85,133.22,10.34,127.76,0c3.44.04,6.89-.03,10.33,0,.44.39.69.94,1.08,1.38-.51.55,2.5,4.62,3.54,6,2.75,3.65,5.93,6.54,7.08,7.97,7.83,9.68,15.08,19.91,22.23,30.1v.79l-13.38.2s.08-.08-.2-.2l-10.33-11.21C134.2,27.44,127.79,12.08,118.51,0c1.31,0,2.62,0,3.93,0Z"/>
      <path class="cls-3" d="m51.63,0c-4.2,5.13-7.89,10.76-12.39,15.64-7.89,8.55-24.19,20.28-32.95,30.59H.28l.2-.89C11.92,30.08,22.53,14.16,35.4,0,40.81-.02,46.22.04,51.63,0Z"/>
      <path class="cls-3" d="m75.23,0c-3.32,14.2-4.67,36.79-15.74,46.23h-7.87c10.03-15.22,16.65-27.39,19.38-45.84-6.59,20.3-10.22,28.72-22.92,46.03-.07,0-.13,0-.2,0-3.55-.02-7.28-.15-10.82-.49,3.31-4.34,8.01-8.8,11.21-12.98,2.83-3.71,4.95-7.97,7.87-11.61C61.72,14.41,65.39,14.24,68.54,0c2.23,0,4.46,0,6.69,0Z"/>
      <path class="cls-3" d="m99.43,0c.85,4.07,2.2,8.01,3.34,12,1.91,6.65,3.67,13.36,5.71,19.97,1.46,4.74,3.56,9.5,4.62,14.26-1.01.03-2.04-.04-3.05,0-1.32.05-1.49.2-1.57.2-2.89.04-5.86-.6-8.75,0C93.29,31.88,91.4,15.78,90.58,0c2.95,0,5.9,0,8.85,0Z"/>
      <path class="cls-3" d="m82.71,0c-.29,6.81-.98,13.65-1.18,20.46-.19,6.55-.59,13.14.98,19.57.16,2.38-.14,3.96-.39,6.2-4,0-8-.03-12,0-.07,0-.13,0-.2,0,.43-15.65,5.2-30.74,7.08-46.23,1.9,0,3.8,0,5.71,0Z"/>
      <path class="cls-3" d="m66.18,0c-6.44,16.2-6.89,13.67-14.75,22.33-7.19,7.92-14.07,16.14-21.44,23.9l-.39.2-8.85-.49c11.23-10.31,20.64-22.38,32.07-32.46L60.68,0c1.84,0,3.67,0,5.51,0Z"/>
      <path class="cls-3" d="m57.72,0c-2.73,4.06-5.48,8.1-7.67,12.49-10.78,11.42-21.15,23.2-32.66,33.94-.3-.01-.46,0-.59,0-.53-.02-4.68-.2-4.72-.49C26.46,30.63,41.56,16.03,55.17,0c.85,0,1.7,0,2.56,0Z"/>
      <path class="cls-5" d="m55.17,0c-13.6,16.02-28.7,30.63-43.08,45.94.04.29,4.2.47,4.72.49l-5.41,7.67-5.21-.1c.65-1.19,5.17-6.66,5.31-7.08.1-.3.27-.45-.1-.69-.28-.1-4.76.01-5.11.2-.73.38-5.27,7.96-5.71,7.67-.26-.17.18-.9-.49-.79-.16-1.39-.08-5.71.2-7.08h6c8.77-10.32,25.06-22.04,32.95-30.59C43.74,10.77,47.42,5.14,51.63,0c1.18,0,2.36,0,3.54,0Z"/>
      <path class="cls-5" d="m60.68,0l-7.87,13.48c-11.42,10.08-20.84,22.15-32.07,32.46l8.85.49-6.3,8.07c-3,.09-6.04,0-9.05,0l6.1-7.97c-.09-.66-2.48-.08-2.95-.1,11.5-10.74,21.88-22.51,32.66-33.94C52.25,8.11,55,4.07,57.72,0c.98,0,1.97,0,2.95,0Z"/>
      <path class="cls-3" d="m86.84,0c-.14,7.07.18,14.12.98,21.15,2.65,8.23,4.84,16.54,6.69,24.98l-3.34.3c-.11-.28-.19-.18-.2-.2-.17-.43-.23-.95-.39-1.38-.99-2.61-2.41-5.71-3.15-8.36-3.28-11.85-2.44-24.34-2.56-36.49.66,0,1.31,0,1.97,0Z"/>
      <path class="cls-5" d="m102.77,0c4.17,13.85,11.5,33.91,20.07,45.44.18.9-2.79.87-3.54.1-1.19-1.22-11.81-23.88-13.18-27.15-1.23-2.93-1.58-6.59-3.34-6.39-1.15-3.99-2.49-7.93-3.34-12,1.11,0,2.23,0,3.34,0Z"/>
      <path class="cls-2" d="m16.81,46.43c.13,0,.29-.01.59,0,.47.02,2.86-.57,2.95.1l-6.1,7.97c-.92,0-1.84,0-2.75,0-3.77-.03-7.54.02-11.31,0-.2-.14-.07-.9-.1-1.18.67-.11.23.62.49.79.44.29,4.98-7.29,5.71-7.67.35-.18,4.83-.3,5.11-.2.37.23.2.39.1.69-.15.42-4.66,5.89-5.31,7.08l5.21.1,5.41-7.67Z"/>
      <g>
        <path class="cls-5" d="m152.74,46.14c.17-.23,5.01-.19,5.71.1q-5.16-5.61-10.33-11.21C134.2,27.44,127.79,12.08,118.51,0c-1.25,0-2.49,0-3.74,0v.2c.59.07,1.6-.1,1.87,0,.63.24,7.52,10.44,7.57,11.12.06.71-.46.32-.39.89.12.57.48,1.09.79,1.57.46-.07.9-.39,1.38-.1.43.26,2.13,4.38,5.31,8.66,3.16,4.25,7.09,7.97,10.62,11.9,3.49,3.89,7.11,7.66,10.43,11.71-3.93.02-7.87.24-11.8.3,3.02,3.92,3.14,4.08,5.94,7.7.83-.02,1.58.17,2.25.63,2.8-.29,11.19-.06,12.47-.07q-4.23-4.18-8.46-8.36Z"/>
        <path class="cls-1" d="m146.48,53.94c.12.15.23.3.36.46-1.61.38-11.19-.18-11.71.1-.19.1-.07.57-.1.79.43.72,1.06,4.34,1.18,5.41.79,8.65.75,29.01,1.77,35.61.49,3.15-.47,11.29.67,14.22l9.18-.14-.41-8.48c.27-15.7.11-31.42.39-47.12.04-.1.37-.17.9-.23-.67-.46-1.41-.65-2.25-.63Z"/>
      </g>
      <g>
        <path class="cls-5" d="m127.76,0c5.46,10.34,12.77,19.84,19.18,29.31-8.13-5.75-9.63-8.95-15.05-16.13l.79-.3c-1.91-4.44-4.82-8.39-6.49-12.89.52,0,1.05,0,1.57,0Z"/>
        <path class="cls-4" d="m126.19,0c1.67,4.5,4.59,8.44,6.49,12.89l-.79.3c-3.25-4.31-6.52-8.64-9.44-13.18,1.25,0,2.49-.01,3.74,0Z"/>
      </g>
      <path class="cls-4" d="m149.79,15.35c-1.15-1.42-4.33-4.31-7.08-7.97-1.04-1.38-4.05-5.45-3.54-6,2.72,3.01,7.89,10.29,10.62,13.97Z"/>
      <path class="cls-5" d="m140.55,46.24l6.3,8.16c-1.61.38-11.19-.18-11.71.1-.19.1-.07.57-.1.79-.08-.14-.59-.76-.69-.79-1.21-.03-2.43.04-3.64,0-2.3-2.7-4.7-5.27-6.89-8.07,5.56-.42,11.15-.12,16.72-.2Z"/>
      <g>
        <path class="cls-5" d="m77,0c-1.88,15.49-6.65,30.58-7.08,46.23-3.47.03-6.95.2-10.43.2v-.2C70.57,36.8,71.91,14.2,75.23,0c.59,0,1.18,0,1.77,0Z"/>
        <path class="cls-2" d="m69.92,46.24c.07,0,.13,0,.2,0v8.26c-4.98,0-9.97-.02-14.95,0l4.33-8.07c3.48,0,6.95-.17,10.43-.2Z"/>
      </g>
      <path class="cls-5" d="m82.12,46.24c-.32,2.78-.97,5.53-1.57,8.26-3.48,0-6.95,0-10.43,0v-8.26c4-.03,8,0,12,0Z"/>
      <path class="cls-5" d="m59.5,46.24v.2l-4.33,8.07c-3.02.01-6.03-.03-9.05,0,1.7-2.74,3.54-5.38,5.31-8.07.15-.23.19-.19.2-.2h7.87Z"/>
      <g>
        <path class="cls-5" d="m90.58,0c.82,15.77,2.71,31.87,9.15,46.43,2.9-.6,5.87.04,8.75,0,.64.89,1.86,7.32,2.16,7.57.15.12,1.16.16,1.28.1.35-.2-2.19-6.9-1.87-7.87,1.01-.04,2.03.03,3.05,0-1.06-4.76-3.16-9.52-4.62-14.26-2.04-6.61-3.8-13.32-5.71-19.97,1.77-.19,2.11,3.47,3.34,6.39,1.37,3.27,11.99,25.93,13.18,27.15.75.77,3.72.8,3.54-.1.19.26.39.53.59.79-1.54-.18-3.18.2-3.34.2-1.42,0-2.87-.26-4.33-.2-1.01.05-2.01-.21-2.36.3l2.56,7.97c-4.2-.02-8.39,0-12.59,0l-3.34-7.77c-.56-.64-5.32-.71-5.51-.2l2.16,7.97c-.79,0-1.57,0-2.36,0-.95-2.73-2.09-5.38-3.15-8.07l3.34-.3c-1.85-8.44-4.04-16.76-6.69-24.98-.8-7.03-1.12-14.08-.98-21.15,1.25,0,2.49,0,3.74,0Z"/>
        <path class="cls-2" d="m103.37,54.5c-2.23,0-4.46,0-6.69,0l-2.16-7.97c.19-.52,4.95-.44,5.51.2l3.34,7.77Z"/>
      </g>
      <path class="cls-2" d="m120.09,46.43l4.33,8.07c-1.9-.02-3.8.01-5.71,0l-2.95-8.26c1.46-.07,2.91.2,4.33.2Z"/>
      <path class="cls-6" d="m123.43,46.24s.38.18.39.2c2.19,2.8,4.58,5.37,6.89,8.07-2.09-.06-4.2.02-6.3,0l-4.33-8.07c.17,0,1.8-.37,3.34-.2Z"/>
      <path class="cls-2" d="m51.43,46.43c-1.77,2.69-3.61,5.33-5.31,8.07-1.05,0-2.1-.02-3.15,0l4.92-8.07c.07,0,.13,0,.2,0,.74,0,2.24-.54,3.34,0Z"/>
      <path class="cls-2" d="m115.76,46.24l2.95,8.26c-.92,0-1.84,0-2.75,0l-2.56-7.97c.35-.5,1.35-.25,2.36-.3Z"/>
      <path class="cls-6" d="m158.45,46.24c.27.11.18.19.2.2.52.31,6.12,6.76,7.28,8.07-1.57.02-3.15-.01-4.72,0l-8.46-8.36c.17-.23,5.01-.19,5.71.1Z"/>
      <path class="cls-5" d="m141.92,34.24c-8.07,1.36-12.74-13.17-17.31-20.46.46-.07.9-.39,1.38-.1.43.26,2.13,4.38,5.31,8.66,3.16,4.25,7.09,7.97,10.62,11.9Z"/>
      <path class="cls-5" d="m123.82,12.2c-1.16-1.46-2.04-1.03-4.13-3.44-1.39-1.6-4.04-6.37-4.92-8.56.59.07,1.6-.1,1.87,0,.63.24,7.52,10.44,7.57,11.12.06.71-.46.32-.39.89Z"/>
      <g>
        <path class="cls-5" d="m66.18,0c-6.44,16.2-6.89,13.67-14.75,22.33-7.19,7.92-14.07,16.14-21.44,23.9l6.49.1c-1.09,1.54-4.82,6.66-5.9,7.38.35,1.14,2.05.3,2.89.64,1.11.02,2.32.35,3.41.46,0,0,0-.02,0-.03.23-.51,5.22-.28,6.1-.3q2.46-4.03,4.92-8.07c-3.55-.02-7.28-.15-10.82-.49,3.31-4.34,8.01-8.8,11.21-12.98,2.83-3.71,4.95-7.97,7.87-11.61C61.72,14.41,65.39,14.24,68.54,0c-.79,0-1.57,0-2.36,0Z"/>
        <path class="cls-1" d="m33.92,54.99c.06.41-1.28,5.26-1.57,8.07-.54,5.15-.32,10.37-.98,15.54-.46,3.61-1.37,8.62-2.56,12-.07.2,0,.46.2.59-.57.9-1.89-4.93-2.36-5.31-.57-4.03-.64-12.83-1.57-8.36.06,2.43.14,4.85.2,7.28.25,9.87.71,19.73.59,29.61.19.49,1.23.64,1.67.49,1.01-.34,6.4-.46,6.4-.46.59-20.2,2.36-39.41,2.95-59.61-1.09-.11-2.29-.45-3.41-.46.24.1.41.28.46.63Z"/>
        <path class="cls-1" d="m25.07,77.52c-.2-7.67-.2-15.35-.59-23.02,1.87-.07,3.73-.34,5.61-.2.12-.37.2-.4.49-.59.45,1.47,3.12-.34,3.34,1.28.06.41-1.28,5.26-1.57,8.07-.54,5.15-.32,10.37-.98,15.54-.46,3.61-1.37,8.62-2.56,12-.07.2,0,.46.2.59-.57.9-1.89-4.93-2.36-5.31-.57-4.03-.64-12.83-1.57-8.36Z"/>
      </g>
      <path class="cls-2" d="m29.99,46.24l6.49.1c-1.09,1.54-4.82,6.66-5.9,7.38-.29.19-.38.22-.49.59-1.88-.14-3.74.12-5.61.2-.39.02-.79-.01-1.18,0l6.3-8.07.39-.2Z"/>
      <path class="cls-5" d="m51.63,46.24s-.04-.04-.2.2c-1.1-.54-2.6,0-3.34,0C60.78,29.12,64.41,20.7,71,.4c-2.72,18.45-9.35,30.62-19.38,45.84Z"/>
      <path class="cls-5" d="m110.05,46.24c-.32.97,2.22,7.67,1.87,7.87-.11.06-1.13.03-1.28-.1-.3-.25-1.52-6.69-2.16-7.57.08,0,.26-.15,1.57-.2Z"/>
      <g>
        <path class="cls-5" d="m84.87,0c.12,12.15-.72,24.64,2.56,36.49.73,2.65,2.15,5.75,3.15,8.36.35,1.68-2.76,1.24-2.95,1.08-.17-.14-1-3.57-1.18-4.13-.05-.17-.34-.03-.39-.2-.08-.25.28-.33.2-.59-1.45-4.69-2.66-9.47-3.15-14.36-.36-3.59,1.05-6.17-1.57-6.2.2-6.81.89-13.65,1.18-20.46.72,0,1.44,0,2.16,0Z"/>
        <path class="cls-2" d="m87.82,46.43c.65,2.63,1.62,5.49,1.77,8.07-2.23,0-4.46,0-6.69,0l1.77-8.26c1.05,0,2.15.2,3.15.2Z"/>
        <path class="cls-6" d="m90.97,46.24s.09-.08.2.2c1.06,2.69,2.2,5.34,3.15,8.07-1.57,0-3.15,0-4.72,0-.15-2.58-1.12-5.43-1.77-8.07.16,0,1.71-.37,3.15-.2Z"/>
        <path class="cls-6" d="m84.68,46.24l-1.77,8.26c-.79,0-1.57,0-2.36,0,.6-2.73,1.25-5.48,1.57-8.26.85,0,1.7,0,2.56,0Z"/>
        <path class="cls-5" d="m90.58,44.86c.16.43.23.95.39,1.38-1.43-.18-2.99.2-3.15.2-1,0-2.1-.2-3.15-.2-.85,0-1.7,0-2.56,0,.26-2.24.55-3.81.39-6.2-1.58-6.44-1.17-13.02-.98-19.57,2.62.03,1.22,2.61,1.57,6.2.49,4.9,1.7,9.67,3.15,14.36.08.26-.28.34-.2.59.05.17.34.03.39.2.18.56,1.01,4,1.18,4.13.19.15,3.3.6,2.95-1.08Z"/>
      </g>
    </g>
  </g>
</svg>