<?xml version="1.0" encoding="UTF-8"?>
<svg id="Layer_2" data-name="Layer 2" xmlns="http://www.w3.org/2000/svg" viewBox="0 0 426.79 318.56">
  <defs>
    <style>
      .cls-1 {
        stroke: #4d4d4d;
        stroke-miterlimit: 10;
        stroke-width: 5px;
      }

      .cls-1, .cls-2 {
        fill: #4d4d4d;
      }

      .cls-2, .cls-3 {
        stroke-width: 0px;
      }

      .cls-3 {
        fill: #b3b3b3;
      }
    </style>
  </defs>
  <g id="Layer_1-2" data-name="Layer 1">
    <g>
      <g>
        <path class="cls-2" d="m111.24,267.58c60.1,0,120.43,2.58,179.91,2.54,37.83-.03,170.15-21.21,127.14-81.17-23.95-33.38-56.53-35.76-93.26-38.56,42.57-27.6,59.56-64.82,10.69-103.48-18.39-14.55-95.83-31.2-98.09,9.43-11.55-17.45-14.88-35.62-37.11-43.15-18.89-6.4-41.37,1.57-58.9,8.97-21.23,8.96-29.22,14.05-25.3,40.01,2.45,16.25,10.39,34.87,29.86,21.57C98.71,36.14,5.61,148.42,68.94,176.4c-31.38,3.05-84.03,41.42-53.57,76.02,21.17,24.07,67.81,14.07,95.87,15.16"/>
        <path class="cls-3" d="m105.03,256.73c60.1,0,120.43,2.58,179.91,2.54,37.83-.03,170.15-21.21,127.14-81.17-23.95-33.38-56.53-35.76-93.26-38.56,42.57-27.6,59.56-64.82,10.69-103.48-18.39-14.55-95.83-31.2-98.09,9.43-11.55-17.45-14.88-35.62-37.11-43.15-18.89-6.4-41.37,1.57-58.9,8.97-21.23,8.96-29.22,14.05-25.3,40.01,2.45,16.25,10.39,34.87,29.86,21.57C92.5,25.28-.6,137.57,62.73,165.55c-31.38,3.05-84.03,41.42-53.57,76.02,21.17,24.07,67.81,14.07,95.87,15.16"/>
      </g>
      <g>
        <line class="cls-1" x1="40.07" y1="295.96" x2="55.89" y2="317.06"/>
        <line class="cls-1" x1="78.83" y1="295.96" x2="94.65" y2="317.06"/>
        <line class="cls-1" x1="111.69" y1="295.96" x2="127.52" y2="317.06"/>
        <line class="cls-1" x1="150.45" y1="295.96" x2="166.28" y2="317.06"/>
        <line class="cls-1" x1="187.57" y1="295.96" x2="203.4" y2="317.06"/>
        <line class="cls-1" x1="226.33" y1="295.96" x2="242.16" y2="317.06"/>
        <line class="cls-1" x1="259.2" y1="295.96" x2="275.02" y2="317.06"/>
        <line class="cls-1" x1="297.96" y1="295.96" x2="313.78" y2="317.06"/>
        <line class="cls-1" x1="332.13" y1="295.96" x2="347.95" y2="317.06"/>
        <line class="cls-1" x1="370.89" y1="295.96" x2="386.72" y2="317.06"/>
      </g>
    </g>
  </g>
</svg>