<?xml version="1.0" encoding="UTF-8"?>
<svg id="Layer_2" data-name="Layer 2" xmlns="http://www.w3.org/2000/svg" viewBox="0 0 128.07 93.49">
  <defs>
    <style>
      .cls-1 {
        fill: #606c75;
      }

      .cls-1, .cls-2, .cls-3 {
        stroke-width: 0px;
      }

      .cls-2 {
        fill: #97622e;
      }

      .cls-3 {
        fill: #a1cbdf;
      }
    </style>
  </defs>
  <g id="Layer_1-2" data-name="Layer 1">
    <g>
      <path class="cls-1" d="m31.26,39.87c.67,6.55.98,5.13,4.4.93.88,5.78-.23,8.92,4.48,2.63.72,5.73.11,8.6,4.64,2.47.72,7.04-.04,8.05,4.48,2.63.87,6.69.13,8.31,4.33,2.63.95,5.47-.21,8.91,4.48,2.47,1.11,5-.38,9.16,4.33,2.63,1.03,5.35.16,8.39,4.64,2.32.76,6.27-.18,8.6,4.48,2.63.84,5.37-.2,8.94,4.48,2.63.81,6.22-.19,8.11,4.64,2.63.54,6.06-.33,8.33,4.33,2.47.5.95-.08,6.41,1.7,6.03.21-.05,2.27-3.08,2.78-3.4.61.09-.16,4.93.46,5.41.08.06,1.9.49,2.01.46.31-.08,2.32-3.19,2.63-2.94.44,1.16-.19,6.4,1.85,5.72.21-.07,2.58-3.56,2.78-3.4.82,6.52,0,8.44,4.64,2.63.94,5.7-.16,9.09,4.64,2.63.92,5.87.29,8.96,4.64,2.78.72,1.29-.16,6.34,2.01,6.03.28-.04,2.6-3.52,2.94-3.4l.23,4.87,2.24,1.16c.4,0,.37-.4.54-.62.34-.43,4.61-8.32,5.25-9.58.27-.53,1.92-3.55,1.78-3.86q-34.57-29.9-69.14-59.79l-.77-.46c-7.17,5.81-15.78,11.93-23.25,17.61-1.24.95-2.39,2.17-3.63,3.09Z"/>
      <path class="cls-2" d="m.51,20.56c1.29,1.34,22.11,14.48,23.1,15.45.51.5,3.1,5.42,3.71,5.72,1.2.59,2.92-1.09,3.94-1.85,1.24-.92,2.39-2.14,3.63-3.09,7.47-5.68,16.08-11.8,23.25-17.61,1.06-.86,2.1-1.76,3.09-2.7C55.17,11.86,37.68-.42,30.56.01c-1.91.11-9.08,2.78-9.58,2.78-.49,0-1.95-1.32-3.24-1.08C15.22,2.18.5,15.33.05,18.01c-.14.81.03,1.84.46,2.55Z"/>
      <path class="cls-3" d="m48.95,13.45c-3.32-.73-3.85,4.04-1.08,4.33,2.99.31,3.1-3.88,1.08-4.33Z"/>
    </g>
  </g>
</svg>